<?xml version="1.0" standalone="no"?>
<!DOCTYPE svg PUBLIC "-//W3C//DTD SVG 20010904//EN"
 "http://www.w3.org/TR/2001/REC-SVG-20010904/DTD/svg10.dtd">
<svg version="1.0" xmlns="http://www.w3.org/2000/svg"
 width="1701.000000pt" height="1701.000000pt" viewBox="0 0 1701.000000 1701.000000"
 preserveAspectRatio="xMidYMid meet">
<metadata>
Created by potrace 1.11, written by Peter Selinger 2001-2013
</metadata>
<g transform="translate(0.000000,1701.000000) scale(0.100000,-0.100000)"
fill="#000000" stroke="none">
<path d="M8307 16504 c-1 -1 -79 -5 -173 -8 -94 -4 -179 -8 -190 -10 -10 -2
-64 -7 -119 -11 -55 -4 -107 -9 -117 -10 -9 -2 -48 -7 -85 -10 -37 -4 -79 -8
-93 -10 -14 -2 -45 -6 -70 -10 -25 -3 -56 -8 -70 -10 -14 -3 -43 -7 -65 -10
-22 -2 -51 -7 -65 -10 -13 -2 -42 -7 -65 -11 -78 -11 -241 -43 -360 -69 -116
-26 -172 -38 -225 -50 -93 -19 -137 -41 -191 -94 -63 -64 -89 -130 -84 -217
10 -176 184 -304 355 -262 67 17 335 77 368 83 18 3 63 12 100 19 37 8 85 17
107 21 107 17 295 44 338 49 26 3 66 8 90 11 97 12 116 14 197 20 47 4 101 9
120 11 51 5 404 17 480 17 97 -1 469 -14 488 -18 10 -1 62 -6 117 -9 55 -4
111 -9 125 -11 14 -3 50 -7 80 -10 61 -6 198 -23 245 -31 17 -3 41 -7 55 -9
159 -22 449 -81 660 -134 817 -206 1604 -555 2298 -1020 79 -53 151 -100 160
-106 8 -5 23 -15 31 -22 9 -6 72 -54 141 -105 125 -93 191 -144 240 -184 138
-116 242 -204 274 -234 528 -476 957 -980 1325 -1558 171 -268 382 -658 509
-942 23 -51 54 -123 57 -130 1 -3 6 -16 12 -30 112 -264 280 -753 327 -955 56
-237 82 -337 99 -365 57 -98 135 -143 247 -144 88 -1 149 24 207 83 93 95 100
185 34 446 -24 94 -50 190 -57 215 -8 25 -34 113 -58 195 -169 565 -395 1081
-730 1670 -75 132 -326 523 -383 595 -6 8 -72 96 -146 195 -166 222 -291 372
-507 609 -68 75 -351 358 -447 447 -315 294 -727 613 -1104 856 -128 82 -308
193 -315 193 -3 0 -18 8 -32 19 -15 10 -67 40 -117 66 -49 26 -94 51 -100 55
-46 34 -474 238 -685 327 -399 167 -950 346 -1295 419 -21 5 -92 20 -135 29
-14 2 -36 7 -50 10 -14 3 -36 7 -50 10 -14 3 -47 9 -75 15 -27 5 -66 12 -85
15 -19 3 -57 10 -85 15 -81 15 -279 43 -390 55 -33 3 -73 8 -90 10 -16 2 -66
6 -110 10 -44 3 -102 8 -130 10 -148 13 -727 28 -738 19z"/>
<path d="M4920 15948 c-196 -22 -371 -150 -456 -333 -52 -112 -66 -241 -40
-364 15 -73 64 -191 78 -191 5 0 8 -6 8 -12 1 -29 131 -149 207 -191 108 -59
296 -83 413 -52 212 56 372 216 426 425 19 77 21 197 4 271 -14 60 -64 175
-86 196 -8 8 -14 18 -14 22 0 14 -96 104 -153 142 -65 43 -193 86 -272 91 -27
2 -79 0 -115 -4z"/>
<path d="M3447 14682 c-43 -15 -90 -43 -117 -72 -8 -8 -31 -28 -50 -44 -163
-132 -468 -429 -711 -692 -386 -419 -801 -1006 -1099 -1554 -49 -91 -240 -476
-240 -484 0 -2 -15 -37 -34 -78 -127 -276 -276 -686 -375 -1034 -38 -133 -89
-327 -97 -369 -2 -11 -15 -70 -28 -130 -14 -61 -27 -121 -30 -135 -2 -14 -11
-63 -20 -110 -15 -80 -18 -99 -31 -182 -3 -18 -7 -44 -10 -58 -2 -14 -7 -45
-10 -70 -3 -25 -8 -56 -10 -70 -2 -14 -7 -50 -10 -80 -4 -30 -8 -66 -10 -80
-5 -38 -14 -126 -20 -215 -4 -44 -8 -96 -10 -115 -23 -215 -23 -979 1 -1162 2
-18 6 -67 9 -108 3 -41 7 -91 10 -110 2 -19 7 -60 10 -90 19 -168 20 -173 61
-434 3 -21 8 -48 10 -60 2 -11 7 -37 10 -56 25 -155 120 -560 174 -740 17 -58
37 -127 45 -155 13 -47 118 -363 132 -395 3 -8 7 -19 9 -25 6 -23 106 -269
163 -403 63 -146 226 -482 304 -627 45 -84 219 -383 247 -425 9 -14 69 -104
132 -200 393 -597 943 -1214 1475 -1656 91 -76 154 -99 243 -91 145 13 251
125 257 271 3 98 -32 172 -118 246 -35 30 -84 73 -108 95 -25 22 -66 58 -91
80 -55 49 -440 433 -496 495 -33 37 -153 176 -258 300 -135 158 -386 510 -551
770 -174 274 -386 682 -530 1020 -102 237 -218 563 -291 815 -8 28 -19 64 -24
80 -12 38 -90 352 -97 385 -2 14 -15 77 -28 140 -21 99 -48 247 -60 330 -12
81 -16 109 -20 149 -3 23 -7 55 -9 70 -9 53 -17 127 -21 186 -3 33 -7 76 -10
95 -4 34 -13 160 -20 305 -4 88 -5 581 0 655 10 176 16 279 20 308 2 18 7 67
11 109 3 42 7 85 9 94 2 10 7 49 10 86 4 37 9 71 11 74 2 3 6 30 9 60 6 55 9
75 20 139 4 19 8 47 10 62 2 15 6 35 9 45 3 10 7 34 10 53 9 57 53 268 76 360
11 47 23 93 25 102 30 133 148 517 218 708 129 354 362 862 499 1085 10 17 21
37 25 45 11 24 122 209 177 295 219 343 482 691 746 986 100 112 466 478 559
559 41 36 82 72 91 80 8 8 43 39 77 68 100 86 137 190 108 304 -40 159 -212
252 -368 200z"/>
<path d="M6339 12993 c-4 -40 -1 -6845 4 -6849 3 -3 189 101 414 232 224 130
427 248 451 261 l42 25 0 2393 0 2393 288 -165 c158 -90 310 -177 337 -192 28
-16 140 -80 250 -143 110 -63 220 -126 245 -140 25 -14 153 -87 285 -163 132
-76 260 -149 285 -163 66 -37 213 -121 230 -132 8 -6 21 -13 29 -17 8 -4 75
-42 149 -85 74 -43 136 -78 138 -78 3 0 21 -10 42 -23 20 -13 62 -37 92 -54
52 -29 90 -50 163 -92 17 -10 109 -62 202 -115 94 -53 177 -101 185 -106 8 -5
159 -91 335 -192 175 -101 327 -187 337 -193 9 -5 34 -20 55 -31 21 -12 125
-72 232 -133 107 -61 197 -111 200 -111 3 0 17 -9 31 -20 14 -11 31 -20 38
-20 7 0 52 23 100 51 48 29 101 60 117 69 17 9 65 38 108 64 43 25 80 46 82
46 2 0 48 26 102 58 54 33 162 96 241 142 134 77 142 83 120 95 -13 6 -39 21
-58 32 -177 102 -1571 903 -1620 931 -25 14 -99 57 -165 95 -66 39 -133 77
-150 85 -16 8 -41 23 -55 32 -14 9 -50 31 -80 47 -30 17 -158 90 -285 163
-126 73 -250 144 -275 158 -25 14 -57 32 -72 41 -28 17 -239 138 -273 157 -19
10 -55 31 -127 73 -92 53 -847 487 -873 501 -16 10 -73 42 -125 72 -52 30
-115 66 -140 80 -53 29 -149 85 -170 98 -13 9 -372 215 -521 299 -70 40 -732
421 -749 431 -70 43 -173 100 -181 100 -5 0 -9 -3 -10 -7z"/>
<path d="M7295 10847 l0 -520 205 -117 c113 -64 507 -289 875 -500 369 -211
684 -391 700 -400 17 -9 204 -116 416 -238 213 -122 402 -230 420 -240 19 -11
131 -74 249 -142 118 -68 249 -142 290 -165 41 -23 125 -71 185 -107 61 -35
117 -67 125 -71 8 -4 29 -15 45 -25 17 -10 50 -30 75 -44 25 -14 68 -39 96
-56 28 -16 78 -45 110 -63 33 -18 75 -41 94 -52 19 -10 40 -23 45 -27 6 -4 31
-19 58 -34 118 -65 143 -80 160 -91 15 -10 0 -22 -114 -88 -72 -43 -135 -77
-140 -77 -5 0 -9 -4 -9 -10 0 -5 -4 -10 -9 -10 -5 0 -67 -34 -136 -75 -70 -41
-128 -75 -130 -75 -2 0 -32 -17 -66 -38 -35 -22 -125 -74 -199 -117 -74 -43
-205 -119 -290 -168 -85 -50 -193 -112 -240 -139 -47 -27 -92 -53 -100 -58
-23 -15 -259 -152 -550 -320 -146 -84 -293 -170 -327 -191 -34 -22 -64 -39
-67 -39 -2 0 -66 -37 -142 -81 -77 -45 -179 -105 -229 -134 -49 -29 -106 -62
-125 -73 -19 -11 -102 -59 -185 -107 -141 -83 -418 -243 -495 -287 -19 -11
-116 -68 -215 -126 -98 -58 -196 -114 -217 -126 -20 -12 -65 -37 -100 -58
l-63 -36 1 -514 c1 -282 2 -514 3 -515 0 -1 36 19 79 44 42 25 165 98 272 161
107 63 256 151 330 195 74 44 149 87 166 97 16 10 67 39 113 66 45 27 95 56
110 65 15 9 155 92 312 184 601 355 1408 830 1484 875 44 26 170 100 280 165
110 65 261 154 335 197 256 151 361 213 398 235 20 12 69 41 107 63 39 22 84
49 100 59 38 23 640 378 680 401 17 9 131 77 255 150 124 73 317 187 430 253
113 66 224 132 248 146 51 31 57 34 145 86 37 21 67 42 67 45 0 3 -51 33 -113
68 -131 73 -147 82 -372 212 -93 54 -188 108 -210 120 -22 13 -53 31 -70 41
-16 10 -41 24 -55 32 -22 12 -143 81 -740 425 -91 52 -185 106 -210 120 -25
14 -63 37 -85 52 -22 15 -65 40 -95 57 -58 31 -590 336 -650 372 -19 11 -42
24 -50 28 -8 4 -69 38 -135 77 -66 38 -138 79 -160 91 -22 12 -148 84 -280
160 -132 76 -260 149 -285 163 -25 13 -49 28 -55 32 -5 4 -35 21 -65 37 -30
16 -145 82 -255 145 -110 63 -220 126 -245 140 -25 14 -100 57 -168 96 -68 40
-124 72 -126 72 -2 0 -45 25 -95 55 -51 30 -94 55 -96 55 -2 0 -26 13 -53 29
-27 16 -74 43 -103 59 -30 17 -126 72 -214 123 -88 50 -178 102 -200 114 -22
12 -148 84 -280 160 -132 76 -265 152 -295 168 -30 17 -71 40 -90 52 -71 44
-65 88 -65 -488z"/>
<path d="M5410 7916 c0 -1890 2 -3436 4 -3436 2 0 93 52 202 117 245 143 299
175 344 199 19 10 37 21 40 24 3 3 16 11 30 19 14 8 50 29 80 46 30 17 310
181 623 363 312 183 570 332 573 332 2 0 129 73 282 162 152 88 291 169 307
178 17 10 140 82 275 160 387 225 419 244 525 305 55 32 179 104 275 160 273
159 608 354 647 376 79 45 491 284 523 304 31 20 636 371 716 416 38 21 101
59 129 77 11 6 27 15 35 19 8 3 39 21 68 40 29 18 54 33 56 33 7 0 226 131
226 135 0 2 -30 20 -67 42 -38 21 -76 42 -85 48 -9 5 -34 20 -55 31 -21 12
-54 30 -73 41 -700 403 -637 370 -664 353 -25 -16 -414 -242 -471 -275 -22
-12 -78 -45 -125 -73 -70 -41 -339 -197 -485 -282 -16 -9 -199 -115 -405 -235
-206 -120 -395 -229 -420 -243 -25 -14 -49 -28 -55 -32 -5 -4 -26 -17 -45 -28
-19 -10 -102 -59 -185 -107 -82 -48 -168 -98 -190 -110 -22 -13 -184 -107
-360 -210 -176 -103 -342 -199 -370 -215 -51 -28 -198 -113 -225 -130 -8 -5
-55 -32 -105 -61 -49 -29 -103 -60 -120 -69 -16 -10 -151 -88 -298 -174 -147
-86 -270 -156 -271 -156 -2 0 -3 1077 -2 2394 l1 2395 -434 248 c-239 136
-438 250 -442 251 -5 2 -9 -1539 -9 -3432z"/>
<path d="M16045 9040 c-182 -42 -321 -151 -400 -315 -44 -92 -57 -151 -57
-260 0 -309 242 -559 551 -571 112 -5 197 13 291 60 247 123 371 404 298 671
-29 105 -74 182 -153 260 -142 140 -341 198 -530 155z"/>
<path d="M15863 7021 c-110 -37 -169 -111 -204 -256 -12 -49 -40 -153 -61
-230 -22 -77 -41 -147 -43 -155 -7 -33 -138 -417 -151 -442 -8 -15 -15 -31
-15 -35 -3 -18 -101 -264 -139 -349 -204 -452 -378 -770 -624 -1139 -83 -125
-279 -397 -338 -470 -333 -408 -534 -621 -913 -964 -172 -157 -503 -413 -734
-570 -77 -52 -304 -197 -346 -221 -16 -9 -91 -52 -165 -95 -557 -321 -1329
-623 -1940 -760 -73 -17 -353 -74 -380 -79 -19 -3 -57 -10 -85 -15 -27 -5 -74
-12 -104 -16 -30 -4 -62 -8 -71 -10 -9 -2 -41 -6 -71 -10 -30 -3 -65 -8 -79
-10 -59 -11 -262 -30 -425 -40 -181 -12 -220 -13 -455 -14 -286 -1 -392 3
-640 25 -30 2 -80 7 -110 9 -30 3 -72 7 -92 10 -21 3 -57 7 -80 10 -24 3 -54
8 -68 10 -14 2 -45 7 -70 10 -72 10 -170 26 -247 41 -39 8 -89 17 -110 20 -31
5 -164 33 -233 49 -8 2 -64 14 -123 28 -60 14 -120 24 -135 21 -15 -2 -42 -7
-60 -10 -79 -13 -173 -100 -201 -185 -53 -164 53 -342 223 -375 12 -2 50 -11
85 -20 36 -9 72 -17 80 -19 9 -2 63 -13 121 -25 58 -12 114 -24 125 -26 11 -2
31 -6 45 -9 14 -2 39 -7 55 -10 17 -3 41 -7 55 -10 90 -18 414 -64 565 -79 28
-3 79 -8 115 -12 249 -26 726 -35 1035 -20 194 9 352 20 445 31 19 2 60 7 90
10 50 5 92 10 160 20 14 2 45 7 70 10 25 3 70 10 100 15 30 5 73 12 95 15 22
3 47 7 55 10 8 2 33 6 55 10 158 23 550 115 805 189 147 43 511 163 575 191
17 7 68 28 115 46 319 123 820 365 1070 518 19 11 42 24 50 28 31 15 369 228
405 255 6 5 68 49 139 98 229 162 402 297 636 499 153 132 578 551 696 686 38
43 85 97 105 120 261 296 605 777 831 1165 382 656 674 1372 856 2102 45 180
34 263 -49 353 -73 79 -195 111 -296 76z"/>
<path d="M4988 2275 c-2 -1 -30 -5 -63 -8 -232 -22 -438 -202 -500 -435 -20
-76 -17 -230 7 -305 30 -97 78 -177 149 -248 238 -236 623 -225 846 26 68 75
111 166 140 290 8 36 4 192 -7 219 -5 14 -8 26 -5 26 6 0 -20 64 -53 130 -32
65 -148 185 -214 222 -45 25 -149 68 -166 68 -4 0 -20 2 -37 5 -42 8 -94 13
-97 10z"/>
</g>
</svg>
