<?xml version="1.0" standalone="no"?>
<!DOCTYPE svg PUBLIC "-//W3C//DTD SVG 20010904//EN"
 "http://www.w3.org/TR/2001/REC-SVG-20010904/DTD/svg10.dtd">
<svg version="1.0" xmlns="http://www.w3.org/2000/svg"
 width="1701.000000pt" height="1701.000000pt" viewBox="0 0 1701.000000 1701.000000"
 preserveAspectRatio="xMidYMid meet">
<metadata>
Created by potrace 1.16, written by Peter Selinger 2001-2019
</metadata>
<g transform="translate(0.000000,1701.000000) scale(0.100000,-0.100000)"
fill="#000000" stroke="none">
<path d="M8203 16828 c1 -10 -50 -14 -228 -16 -152 -1 -231 -6 -236 -13 -4 -7
-52 -11 -137 -10 -109 2 -130 -1 -135 -14 -5 -12 -25 -15 -101 -15 -74 0 -95
-3 -100 -15 -4 -12 -24 -15 -90 -15 -47 0 -88 -4 -91 -10 -3 -5 -35 -10 -70
-10 -47 0 -64 -4 -69 -15 -4 -11 -21 -15 -66 -15 -41 0 -66 -5 -76 -15 -10 -9
-34 -15 -65 -15 -47 0 -85 -13 -101 -35 -5 -6 -8 -5 -8 3 0 7 -13 12 -31 12
-17 0 -28 -4 -24 -10 3 -5 -1 -10 -10 -10 -8 0 -18 -7 -21 -15 -5 -11 -21 -15
-60 -15 -41 0 -54 -4 -54 -15 0 -11 -12 -15 -50 -15 -38 0 -50 -4 -50 -15 0
-11 -13 -15 -54 -15 -34 0 -56 -5 -58 -12 -3 -8 -19 -12 -41 -10 -28 3 -37 0
-37 -12 0 -13 -11 -16 -54 -16 -39 0 -55 -4 -60 -15 -3 -9 -18 -15 -36 -15
-17 0 -38 -7 -46 -15 -9 -8 -28 -15 -44 -15 -16 0 -32 -4 -35 -10 -3 -5 -23
-10 -45 -10 -24 0 -40 -5 -44 -15 -3 -9 -18 -15 -40 -15 -22 0 -36 -6 -40 -16
-4 -11 -13 -14 -30 -10 -16 4 -30 0 -40 -9 -8 -8 -26 -15 -39 -15 -14 0 -27
-7 -31 -15 -3 -9 -18 -15 -40 -15 -19 0 -36 -5 -38 -11 -2 -5 -18 -11 -36 -11
-18 -1 -37 -7 -43 -15 -6 -7 -22 -13 -34 -13 -13 0 -25 -7 -29 -15 -3 -8 -15
-15 -26 -15 -12 0 -28 -7 -36 -15 -10 -9 -24 -13 -40 -9 -17 4 -26 1 -30 -10
-3 -9 -16 -16 -29 -16 -13 0 -25 -7 -29 -15 -3 -8 -16 -15 -29 -15 -14 0 -30
-6 -36 -14 -6 -7 -22 -11 -36 -8 -17 3 -27 -1 -31 -12 -3 -9 -16 -16 -29 -16
-13 0 -25 -7 -29 -15 -3 -8 -14 -15 -24 -15 -11 0 -25 -7 -32 -15 -7 -9 -19
-14 -26 -11 -7 3 -18 -2 -24 -10 -7 -8 -21 -14 -31 -14 -11 0 -19 -3 -19 -7 0
-12 -59 -43 -81 -43 -11 0 -17 -5 -14 -10 4 -6 -7 -13 -24 -16 -17 -4 -28 -10
-25 -15 3 -5 -4 -9 -16 -9 -11 0 -23 -7 -26 -15 -4 -9 -19 -15 -35 -15 -17 0
-28 -5 -26 -12 1 -6 -7 -14 -17 -16 -11 -2 -26 -10 -34 -18 -7 -8 -20 -14 -29
-14 -8 0 -24 -11 -35 -25 -11 -14 -30 -25 -43 -25 -12 0 -25 -7 -29 -15 -3 -8
-15 -15 -26 -15 -11 0 -20 -4 -20 -10 0 -5 -13 -10 -30 -10 -18 0 -30 -5 -30
-13 0 -20 -33 -47 -58 -47 -12 0 -22 -4 -22 -10 0 -5 -13 -10 -30 -10 -20 0
-30 -5 -30 -15 0 -8 -7 -15 -16 -15 -8 0 -12 -5 -9 -10 4 -6 -7 -13 -25 -16
-16 -4 -40 -17 -53 -30 -12 -13 -30 -24 -39 -24 -10 0 -18 -4 -18 -10 0 -5 -5
-10 -10 -10 -6 0 -19 -9 -30 -20 -12 -12 -25 -18 -30 -15 -6 4 -22 -7 -36 -24
-14 -17 -33 -31 -43 -31 -9 0 -25 -11 -35 -25 -10 -14 -27 -25 -38 -25 -21 0
-48 -22 -48 -39 0 -6 -6 -11 -14 -11 -8 0 -17 -6 -19 -12 -4 -10 -6 -10 -6 0
-1 16 -61 -41 -61 -57 0 -6 -7 -11 -15 -11 -8 0 -15 -7 -15 -16 0 -11 -6 -13
-19 -9 -14 4 -23 0 -31 -15 -6 -11 -15 -18 -21 -15 -5 4 -9 -1 -9 -9 0 -9 -7
-16 -15 -16 -8 0 -14 -6 -12 -12 1 -8 -10 -14 -25 -16 -16 -2 -28 -8 -28 -13
0 -5 -7 -9 -15 -9 -8 0 -15 -4 -15 -10 0 -18 -34 -50 -53 -50 -9 0 -47 -29
-84 -65 -43 -43 -74 -65 -90 -65 -12 0 -23 -4 -23 -10 0 -18 -139 -148 -161
-152 -12 -2 -27 -12 -33 -22 -17 -28 -64 -76 -76 -76 -5 0 -10 -7 -10 -15 0
-8 -5 -15 -10 -15 -13 0 -70 -57 -70 -70 0 -6 -4 -10 -9 -10 -12 0 -71 -59
-71 -70 0 -5 -5 -10 -10 -12 -26 -8 -410 -402 -410 -419 0 -11 -7 -22 -15 -25
-8 -4 -15 -12 -15 -20 0 -8 -4 -14 -9 -14 -17 0 -131 -118 -131 -135 0 -17
-125 -145 -141 -145 -5 0 -9 -13 -9 -30 0 -16 -4 -30 -10 -30 -17 0 -70 -59
-70 -78 0 -10 -18 -34 -40 -52 -22 -18 -40 -42 -40 -52 0 -18 -56 -78 -72 -78
-4 0 -8 -15 -10 -32 -2 -20 -8 -32 -15 -30 -7 1 -13 -5 -13 -13 0 -8 -4 -15
-9 -15 -5 0 -11 -12 -13 -27 -2 -16 -8 -27 -15 -25 -7 1 -13 -4 -13 -12 0 -8
-5 -16 -12 -18 -6 -2 -12 -14 -13 -26 -1 -11 -13 -32 -28 -46 -15 -14 -27 -33
-27 -43 0 -10 -13 -29 -29 -43 -17 -13 -27 -28 -24 -33 6 -10 -31 -47 -47 -47
-5 0 -10 -11 -10 -25 0 -14 -4 -25 -10 -25 -5 0 -10 -7 -10 -15 0 -8 -7 -15
-15 -15 -8 0 -17 -11 -21 -25 -3 -14 -10 -25 -15 -25 -5 0 -9 -7 -9 -15 0 -8
-4 -15 -10 -15 -5 0 -10 -11 -10 -25 0 -14 -6 -25 -13 -25 -12 0 -55 -74 -71
-122 -3 -10 -10 -18 -16 -18 -5 0 -10 -10 -10 -21 0 -12 -11 -32 -25 -45 -14
-13 -25 -32 -25 -44 0 -11 -7 -23 -15 -26 -8 -4 -15 -17 -15 -29 0 -13 -5 -27
-10 -30 -6 -3 -10 -15 -10 -26 0 -11 -7 -22 -15 -25 -8 -4 -15 -17 -15 -30 0
-15 -6 -24 -15 -24 -9 0 -15 -9 -15 -24 0 -14 -4 -28 -10 -31 -5 -3 -10 -15
-10 -25 0 -10 -6 -23 -14 -27 -8 -4 -16 -19 -18 -33 -2 -14 -9 -24 -16 -22 -7
1 -12 -10 -12 -28 0 -16 -4 -30 -10 -30 -5 0 -10 -9 -10 -19 0 -11 -7 -26 -15
-35 -8 -8 -15 -24 -15 -35 0 -12 -6 -21 -15 -21 -11 0 -15 -11 -15 -40 0 -22
-4 -40 -10 -40 -5 0 -10 -11 -10 -25 0 -13 -6 -28 -14 -32 -8 -4 -16 -19 -18
-33 -2 -14 -9 -24 -16 -22 -8 1 -12 -12 -12 -38 0 -29 -4 -40 -15 -40 -10 0
-15 -10 -15 -29 0 -16 -5 -31 -11 -33 -5 -2 -11 -12 -13 -21 -1 -10 -7 -22
-12 -25 -10 -7 -25 -36 -29 -57 -6 -30 -19 -55 -27 -55 -6 0 -8 -9 -5 -21 3
-12 -2 -28 -13 -39 -10 -10 -16 -21 -13 -24 3 -3 -2 -17 -11 -30 -9 -14 -16
-39 -16 -56 0 -18 -6 -33 -15 -36 -9 -4 -15 -19 -15 -40 0 -22 -6 -37 -15 -40
-10 -4 -15 -20 -15 -45 0 -21 -4 -39 -10 -39 -5 0 -10 -18 -10 -40 0 -29 -4
-40 -15 -40 -11 0 -15 -12 -15 -44 0 -30 -5 -46 -15 -50 -10 -4 -15 -16 -13
-38 1 -18 -3 -33 -10 -36 -7 -2 -12 -23 -12 -53 0 -35 -4 -51 -15 -55 -10 -4
-15 -20 -15 -44 0 -24 -5 -40 -15 -44 -11 -4 -15 -20 -15 -56 0 -27 -4 -50
-10 -50 -5 0 -10 -26 -12 -57 -2 -40 -7 -57 -16 -55 -9 1 -12 -17 -12 -67 0
-54 -3 -70 -16 -75 -13 -5 -15 -16 -11 -52 3 -33 1 -47 -9 -51 -10 -4 -14 -24
-14 -69 0 -48 -4 -66 -15 -70 -11 -5 -15 -24 -15 -80 0 -52 -5 -82 -16 -100
-13 -19 -15 -38 -11 -83 5 -45 3 -62 -8 -71 -11 -9 -15 -36 -15 -112 0 -78 -3
-100 -15 -104 -12 -5 -15 -28 -15 -123 0 -80 -4 -121 -12 -129 -19 -19 -19
-1563 0 -1570 9 -3 12 -38 12 -128 0 -94 3 -123 13 -122 9 2 13 -24 15 -102 2
-67 7 -107 15 -112 7 -4 10 -31 9 -76 -3 -52 1 -73 12 -85 12 -11 16 -36 16
-90 0 -57 4 -76 15 -81 11 -4 15 -22 15 -70 0 -42 4 -66 12 -68 8 -3 12 -23
10 -57 -1 -38 2 -53 13 -57 11 -5 15 -22 15 -69 0 -47 4 -64 15 -69 11 -4 15
-20 15 -55 0 -29 5 -51 12 -53 7 -3 11 -22 9 -51 -1 -35 2 -49 14 -53 10 -4
15 -20 15 -50 0 -32 4 -44 15 -44 11 0 15 -12 15 -49 0 -28 4 -53 10 -56 5 -3
10 -22 10 -41 0 -22 6 -37 15 -40 9 -4 15 -19 15 -41 0 -19 7 -41 15 -49 8 -9
15 -30 15 -49 0 -18 6 -35 12 -37 7 -3 11 -18 10 -36 -2 -22 3 -34 13 -38 9
-4 15 -19 15 -36 0 -16 7 -36 15 -44 8 -9 15 -28 15 -43 0 -16 7 -34 15 -41 9
-7 12 -22 9 -39 -4 -20 -1 -30 10 -34 9 -4 16 -16 16 -27 0 -11 4 -20 9 -20 5
0 17 -29 27 -64 10 -36 22 -62 26 -60 5 3 11 -8 14 -25 4 -17 10 -28 15 -25 5
3 9 -13 9 -35 0 -30 4 -41 15 -41 10 0 15 -10 15 -30 0 -18 5 -29 12 -27 7 1
14 -9 16 -23 2 -14 10 -29 18 -33 8 -4 14 -23 14 -42 0 -19 5 -35 10 -35 6 0
10 -11 10 -24 0 -13 7 -26 15 -30 8 -3 15 -17 15 -31 0 -15 4 -24 10 -20 6 4
13 -7 16 -24 4 -17 10 -31 15 -31 5 0 9 -13 9 -30 0 -20 5 -30 15 -30 10 0 15
-10 15 -30 0 -16 4 -30 10 -30 5 0 12 -11 16 -25 3 -14 10 -25 15 -25 5 0 9
-13 9 -30 0 -18 5 -29 12 -27 7 1 14 -9 16 -23 2 -14 7 -27 11 -30 12 -8 41
-72 41 -90 0 -10 7 -20 15 -24 8 -3 15 -13 15 -21 0 -9 7 -23 15 -31 8 -9 15
-23 15 -32 0 -10 11 -26 25 -36 14 -10 25 -29 25 -41 0 -13 7 -25 15 -29 8 -3
15 -14 15 -24 0 -10 13 -31 29 -46 16 -16 27 -35 24 -42 -3 -8 -1 -14 4 -14 5
0 17 -19 28 -42 10 -23 29 -52 42 -64 12 -12 23 -31 23 -43 0 -12 4 -19 10
-16 6 4 13 -7 16 -23 4 -18 16 -34 30 -41 18 -8 24 -19 24 -41 0 -18 5 -30 13
-30 20 0 47 -33 47 -57 0 -11 11 -26 25 -33 18 -9 25 -22 25 -42 0 -15 4 -28
9 -28 18 0 71 -65 71 -87 0 -13 6 -23 14 -23 21 0 45 -38 39 -61 -3 -11 0 -19
7 -19 20 0 70 -57 70 -80 0 -11 25 -43 55 -73 30 -29 55 -61 55 -71 0 -19 23
-46 39 -46 6 0 11 -7 11 -15 0 -8 7 -15 15 -15 8 0 15 -5 15 -11 0 -7 10 -20
22 -31 12 -10 23 -25 24 -33 1 -8 21 -32 45 -52 85 -75 119 -111 119 -125 0
-8 36 -50 80 -94 44 -43 80 -85 80 -91 0 -7 7 -13 15 -13 8 0 15 -5 15 -11 0
-14 25 -39 39 -39 6 0 11 -5 11 -10 0 -13 246 -260 258 -260 5 0 15 -11 22
-25 7 -14 19 -25 27 -25 7 0 13 -7 13 -15 0 -8 6 -15 13 -15 6 0 48 -36 91
-80 44 -44 86 -80 94 -80 14 0 50 -34 125 -119 20 -24 44 -44 52 -45 8 -1 23
-12 33 -24 11 -12 24 -22 31 -22 6 0 11 -7 11 -15 0 -8 7 -15 15 -15 8 0 15
-5 15 -11 0 -16 27 -39 46 -39 9 0 42 -25 72 -55 31 -30 64 -55 74 -55 21 0
78 -51 78 -70 0 -8 8 -10 21 -7 23 6 89 -45 89 -70 0 -9 6 -12 18 -9 18 6 92
-55 92 -76 0 -5 9 -7 19 -3 19 6 61 -27 61 -47 0 -4 14 -8 30 -8 17 0 30 -5
30 -11 0 -17 23 -35 53 -43 15 -3 25 -11 22 -16 -3 -6 2 -10 13 -10 10 0 31
-13 47 -30 16 -16 35 -30 42 -30 7 0 13 -4 13 -10 0 -5 8 -10 19 -10 10 0 26
-11 35 -25 9 -14 25 -25 37 -25 11 0 22 -7 25 -15 4 -9 19 -15 35 -15 22 0 32
-7 41 -25 7 -16 19 -25 35 -25 13 0 26 -7 29 -15 4 -8 17 -15 30 -15 13 0 24
-4 24 -10 0 -5 9 -10 19 -10 11 0 26 -7 35 -15 8 -8 21 -15 28 -15 7 0 22 -9
31 -21 10 -11 31 -25 47 -31 17 -5 30 -14 30 -19 0 -5 11 -9 25 -9 14 0 28 -7
31 -15 4 -8 17 -15 30 -15 13 0 24 -4 24 -10 0 -5 9 -10 19 -10 11 0 26 -6 34
-14 7 -8 25 -16 38 -18 13 -2 23 -9 22 -16 -2 -7 9 -12 27 -12 17 0 30 -4 30
-10 0 -5 11 -10 25 -10 14 0 28 -7 31 -15 4 -9 19 -15 40 -15 24 0 34 -5 34
-15 0 -10 10 -15 30 -15 17 0 30 -4 30 -10 0 -5 11 -10 25 -10 14 0 28 -7 31
-15 4 -8 17 -15 31 -15 18 0 24 -4 19 -15 -4 -12 3 -15 34 -15 29 0 40 -4 40
-15 0 -10 10 -15 31 -15 16 0 28 -4 24 -9 -3 -5 7 -11 22 -13 16 -2 27 -8 26
-15 -2 -7 7 -13 20 -14 31 0 109 -33 101 -42 -4 -4 9 -7 30 -7 24 0 39 -5 42
-15 4 -10 13 -13 24 -10 10 3 25 -1 33 -10 9 -8 30 -15 47 -15 18 0 33 -6 36
-15 4 -9 19 -15 39 -15 18 0 38 -7 46 -16 8 -9 21 -13 35 -10 13 4 29 0 38 -9
8 -8 29 -15 46 -15 18 0 33 -6 36 -15 4 -10 20 -15 45 -15 26 0 42 -5 45 -15
4 -10 20 -15 45 -15 21 0 39 -4 39 -10 0 -5 23 -10 50 -10 36 0 52 -4 56 -15
4 -10 20 -15 44 -15 26 0 40 -5 44 -16 5 -13 16 -15 52 -11 33 3 47 1 51 -9 3
-9 22 -14 54 -14 35 0 51 -4 55 -15 4 -11 21 -15 59 -15 38 0 54 -4 59 -15 4
-12 20 -15 68 -14 39 1 63 -2 66 -9 2 -8 28 -12 68 -12 48 0 66 -4 70 -15 5
-11 23 -15 71 -15 46 0 69 -5 81 -16 12 -13 29 -15 79 -11 47 3 65 1 71 -9 5
-9 36 -14 102 -16 70 -2 94 -6 93 -15 -2 -10 27 -13 121 -13 91 0 125 -3 129
-12 3 -10 184 -13 860 -13 671 0 859 3 869 13 8 8 49 12 130 12 98 0 118 3
118 15 0 12 17 15 94 15 59 0 96 4 98 11 2 6 36 11 82 12 53 1 81 6 84 15 2 8
26 12 72 12 51 0 69 4 74 15 4 11 21 15 65 15 38 0 61 4 63 12 3 9 24 12 66
10 49 -3 63 0 68 12 5 12 20 16 59 16 38 0 55 4 59 15 4 11 20 15 56 15 27 0
50 5 50 10 0 6 24 10 54 10 39 0 55 4 60 15 3 10 19 15 45 15 25 0 41 5 45 15
3 10 20 15 48 15 24 0 51 7 61 14 9 7 28 11 42 8 17 -3 27 1 31 12 4 11 18 16
44 16 24 0 40 5 44 15 3 9 19 15 41 15 19 0 35 5 35 10 0 6 18 10 39 10 25 0
41 5 45 15 3 10 19 15 45 15 25 0 41 5 45 15 3 9 18 15 40 15 19 0 36 4 38 10
2 5 14 11 28 12 14 2 31 11 38 21 9 11 21 16 33 12 11 -4 27 2 41 14 12 12 27
20 32 19 24 -3 66 15 66 29 0 9 6 13 15 9 8 -3 21 1 29 9 8 8 24 15 35 15 12
0 21 6 21 15 0 11 12 15 45 15 30 0 44 4 42 12 -1 7 9 14 23 16 14 2 29 10 33
18 4 8 17 14 27 14 11 0 20 5 20 10 0 6 16 10 35 10 23 0 34 4 32 12 -1 8 12
14 33 16 19 2 37 7 40 11 8 12 72 41 90 41 10 0 20 7 24 15 3 8 16 15 30 15
13 0 26 7 30 15 3 8 15 15 26 15 11 0 20 5 20 10 0 6 13 10 30 10 18 0 29 5
27 12 -1 7 9 14 23 16 14 2 29 10 33 18 4 8 16 14 26 14 10 0 30 11 45 25 15
14 35 25 45 25 11 0 21 7 25 15 3 8 14 15 25 15 11 0 23 5 26 10 3 6 17 10 30
10 12 0 25 7 29 15 3 8 15 15 26 15 23 0 50 22 50 39 0 10 21 16 43 12 4 0 7
3 7 8 0 9 44 28 46 20 1 -8 34 30 34 40 0 6 7 11 15 11 8 0 15 5 15 10 0 6 9
10 20 10 11 0 23 7 26 15 4 8 12 15 20 15 8 0 14 7 14 15 0 9 9 15 25 15 16 0
25 6 25 16 0 11 6 15 20 11 15 -4 25 3 37 24 11 19 25 29 41 29 14 0 33 11 44
25 11 14 28 25 39 25 10 0 36 18 57 39 21 22 50 43 63 46 14 3 33 17 43 31 11
13 28 24 38 24 11 0 36 18 57 40 20 22 46 40 57 40 10 0 28 12 39 27 33 44 45
53 71 53 13 0 24 5 24 10 0 16 91 101 103 97 12 -4 67 48 67 63 0 6 7 10 15
10 8 0 15 7 15 15 0 8 6 15 13 15 7 0 21 11 31 25 11 14 29 25 42 25 13 0 24
5 24 11 0 14 25 39 39 39 6 0 11 4 11 9 0 9 57 71 66 71 2 0 20 18 40 40 20
22 47 43 59 46 12 3 102 86 198 185 97 98 181 179 187 179 5 0 10 7 10 15 0 8
5 15 11 15 16 0 49 40 61 72 6 16 14 28 19 28 5 0 9 5 9 10 0 10 36 50 44 50
3 0 31 27 64 60 32 33 64 60 71 60 7 0 10 7 7 18 -6 18 55 92 76 92 5 0 7 8 4
18 -4 13 10 35 49 75 30 31 55 64 55 72 0 9 7 18 15 21 8 4 15 12 15 20 0 8 7
14 15 14 8 0 15 5 15 11 0 7 11 22 24 34 13 12 26 33 28 46 2 13 9 23 16 21 8
-1 11 1 8 6 -6 9 35 48 47 44 4 -1 7 10 7 24 0 27 14 46 43 57 9 3 17 14 17
24 1 22 23 53 39 53 6 0 11 6 11 13 0 8 11 20 25 27 14 7 25 18 24 24 -3 27 2
46 12 46 17 0 39 27 39 48 0 11 11 27 24 35 13 9 26 29 29 44 3 17 16 35 31
43 19 9 26 22 26 42 0 15 4 28 9 28 5 0 12 11 15 25 4 14 11 25 16 25 6 0 10
7 10 15 0 8 7 15 15 15 10 0 15 10 15 30 0 17 5 30 10 30 6 0 10 9 10 20 0 11
7 23 15 26 8 4 15 12 15 20 0 8 7 14 15 14 10 0 15 10 15 30 0 17 5 30 10 30
6 0 10 9 10 19 0 11 14 31 30 44 16 14 30 35 30 46 0 12 4 21 9 21 5 0 11 14
15 31 3 17 10 28 15 24 5 -3 11 7 13 22 2 16 8 27 16 26 7 -2 12 8 12 26 0 16
6 31 15 35 8 3 15 15 15 26 0 12 4 19 9 15 5 -3 11 7 13 22 2 16 8 27 16 26 7
-2 12 7 12 22 0 14 5 25 10 25 6 0 10 6 10 14 0 8 6 21 13 28 8 7 17 26 21 41
3 15 11 27 16 27 5 0 7 6 4 13 -3 8 2 20 11 27 8 7 15 21 15 32 0 10 7 21 15
24 8 4 15 17 15 30 0 14 6 27 14 30 8 3 13 11 10 19 -3 7 2 19 10 28 9 9 16
27 16 42 0 14 7 28 15 31 9 4 15 19 15 35 0 16 4 29 9 29 5 0 12 14 16 30 4
17 11 30 16 30 5 0 9 11 9 24 0 33 10 57 21 50 5 -3 9 8 9 24 0 16 6 35 14 41
7 6 14 23 14 37 0 15 4 29 10 33 6 3 12 20 14 36 2 17 8 29 16 28 8 -2 12 10
12 38 0 23 7 47 15 55 9 10 13 25 9 39 -4 15 0 26 9 32 9 4 17 24 19 43 2 21
8 34 16 33 8 -2 12 10 12 36 0 22 5 43 10 46 6 3 10 22 10 41 0 22 6 37 15 40
10 4 15 20 15 45 0 26 5 42 15 45 9 4 15 19 15 41 0 19 7 41 16 50 10 10 14
30 13 55 -2 22 2 42 8 46 6 4 13 25 15 47 2 25 8 39 16 38 8 -2 12 13 12 52 0
42 3 55 15 55 11 0 15 12 15 46 0 27 6 51 15 60 8 9 15 25 15 37 0 18 2 19 10
7 8 -12 10 -9 10 13 0 15 -4 27 -10 27 -5 0 -10 5 -10 11 0 5 5 7 10 4 6 -3
10 3 10 14 0 11 5 23 10 26 6 3 10 30 10 60 0 34 5 59 15 69 10 10 15 35 15
76 0 46 4 62 16 67 13 5 15 19 13 74 -3 45 1 73 9 81 7 7 12 39 12 79 0 47 5
72 15 83 11 11 15 39 15 116 0 81 3 102 15 107 13 4 16 26 14 125 -1 78 3 123
10 127 7 5 12 75 13 201 2 150 6 194 16 192 9 -1 12 80 12 383 0 303 -3 384
-12 383 -10 -2 -14 44 -16 200 -1 123 -6 202 -12 202 -6 0 -10 50 -10 125 0
104 -2 125 -15 125 -12 0 -15 18 -15 104 0 83 -3 105 -15 110 -12 4 -15 24
-15 86 0 47 -4 80 -10 80 -6 0 -10 33 -10 79 0 61 -3 80 -15 85 -11 4 -15 21
-15 66 0 41 -5 66 -15 76 -9 9 -15 34 -15 59 0 34 -5 48 -22 60 -16 12 -19 19
-10 22 7 3 12 23 12 51 0 34 -3 43 -10 32 -8 -12 -10 -11 -10 8 0 12 -7 25
-15 28 -10 4 -15 21 -15 54 0 33 -5 50 -15 54 -11 4 -15 21 -15 61 0 31 -4 54
-9 51 -11 -7 -21 17 -21 54 0 15 -6 30 -14 33 -10 4 -13 17 -9 46 4 32 2 42
-11 47 -11 4 -16 18 -16 44 0 24 -5 40 -15 44 -10 3 -15 19 -15 45 0 25 -5 41
-15 45 -9 3 -15 19 -15 41 0 19 -4 35 -10 35 -5 0 -10 20 -10 45 0 31 -4 44
-12 43 -8 -2 -14 11 -16 36 -2 21 -10 45 -18 53 -8 9 -12 23 -9 33 3 10 -1 25
-10 33 -8 9 -15 31 -15 50 0 22 -6 37 -15 41 -8 3 -15 16 -15 30 0 13 -6 26
-12 28 -7 3 -11 18 -10 36 2 22 -3 34 -13 38 -8 4 -15 16 -15 29 0 13 -7 25
-15 29 -9 3 -15 18 -15 36 0 17 -7 38 -16 47 -8 9 -13 22 -10 30 3 7 -1 16 -9
19 -8 4 -15 19 -15 34 0 16 -7 30 -15 34 -9 3 -15 18 -15 40 0 19 -3 36 -7 38
-13 5 -43 68 -43 88 0 10 -7 20 -15 24 -8 3 -15 15 -15 26 0 11 -3 20 -7 20
-10 0 -47 82 -42 92 2 3 -7 17 -21 30 -14 13 -27 32 -28 43 -2 11 -7 22 -12
25 -4 3 -10 15 -14 28 -4 12 -12 22 -17 22 -5 0 -9 11 -9 25 0 16 -6 25 -15
25 -10 0 -15 10 -15 30 0 22 -4 28 -15 24 -11 -5 -15 1 -15 25 0 19 -5 30 -12
29 -6 -2 -13 6 -15 17 -6 33 -26 65 -40 65 -7 0 -13 9 -13 21 0 11 -7 27 -15
35 -8 9 -15 24 -15 35 0 10 -4 19 -10 19 -5 0 -10 13 -10 28 0 20 -7 33 -26
42 -14 8 -28 26 -31 42 -3 15 -9 28 -14 28 -5 0 -9 14 -9 30 0 18 -5 30 -13
30 -19 0 -47 33 -47 54 0 10 -11 27 -25 38 -14 11 -25 28 -25 39 0 11 -13 31
-29 45 -20 17 -27 30 -24 44 3 12 0 20 -7 20 -16 0 -49 41 -50 61 0 9 -11 27
-25 40 -13 13 -25 31 -25 39 -1 20 -24 50 -39 50 -6 0 -11 9 -11 20 0 11 -4
20 -10 20 -5 0 -10 6 -10 13 0 7 -13 23 -30 35 -16 13 -30 29 -30 37 0 8 -6
14 -12 13 -7 -2 -13 4 -13 12 0 9 -19 33 -43 54 -24 22 -42 47 -42 60 0 12
-15 31 -35 46 -19 14 -38 35 -41 47 -3 13 -35 52 -70 88 -36 37 -64 74 -64 86
0 11 -11 30 -25 43 -14 13 -25 28 -25 35 0 6 -5 11 -11 11 -6 0 -24 13 -40 29
-16 16 -29 34 -29 40 0 6 -7 11 -15 11 -8 0 -15 9 -15 20 0 18 -161 190 -177
190 -8 0 -352 343 -353 352 0 18 -171 178 -190 178 -11 0 -20 7 -20 15 0 8 -5
15 -11 15 -14 0 -69 55 -69 69 0 6 -5 11 -11 11 -7 0 -22 11 -35 25 -13 14
-32 25 -43 25 -12 0 -49 28 -86 64 -36 35 -75 67 -88 70 -12 3 -33 22 -47 41
-15 20 -34 35 -46 35 -13 0 -38 18 -60 42 -21 24 -45 43 -54 43 -8 0 -14 6
-13 13 2 6 -4 12 -12 12 -8 0 -24 14 -37 30 -12 17 -28 30 -35 30 -7 0 -13 5
-13 10 0 6 -9 10 -20 10 -11 0 -20 5 -20 11 0 15 -30 38 -50 39 -8 0 -26 12
-39 25 -13 14 -31 25 -40 25 -20 1 -61 34 -61 50 0 7 -8 10 -20 7 -14 -3 -27
4 -44 24 -14 16 -34 29 -45 29 -11 0 -28 11 -39 25 -11 14 -29 25 -39 25 -21
0 -53 29 -53 48 0 7 -13 12 -30 12 -16 0 -30 4 -30 9 0 5 -13 11 -28 14 -16 3
-34 17 -42 31 -9 19 -22 26 -42 26 -15 0 -28 5 -28 10 0 6 -9 10 -19 10 -11 0
-26 7 -35 15 -8 8 -24 15 -35 15 -12 0 -21 6 -21 13 0 14 -32 34 -65 40 -11 2
-19 9 -18 15 2 7 -9 12 -28 12 -24 0 -30 4 -25 15 4 11 -2 15 -24 15 -20 0
-30 5 -30 15 0 9 -9 15 -25 15 -14 0 -25 4 -25 9 0 5 -10 13 -22 17 -13 4 -25
10 -28 14 -3 5 -14 10 -25 12 -11 1 -29 13 -40 24 -11 12 -24 21 -28 21 -15
-1 -97 38 -97 46 0 4 -9 7 -20 7 -11 0 -23 7 -26 15 -4 8 -17 15 -30 15 -14 0
-27 6 -30 14 -3 9 -18 14 -36 14 -16 -1 -33 4 -36 10 -4 5 -21 12 -37 14 -17
2 -29 8 -28 16 2 7 -8 12 -26 12 -16 0 -31 6 -35 15 -3 8 -12 12 -19 9 -8 -3
-21 2 -30 10 -9 9 -30 16 -47 16 -18 0 -33 6 -36 15 -4 8 -16 15 -29 15 -13 0
-25 7 -29 15 -4 10 -16 15 -38 13 -18 -1 -33 3 -36 10 -2 6 -19 12 -38 12 -22
0 -37 6 -40 15 -4 8 -17 15 -31 15 -13 0 -31 7 -40 15 -8 9 -23 13 -33 10 -10
-3 -25 1 -33 10 -9 8 -32 15 -52 15 -22 0 -38 6 -41 15 -4 10 -20 15 -45 15
-21 0 -39 5 -39 10 0 6 -15 10 -34 10 -19 0 -41 7 -50 15 -8 8 -29 15 -46 15
-18 0 -33 6 -36 15 -4 11 -21 15 -55 15 -39 0 -49 3 -49 16 0 13 -7 15 -35 11
-23 -4 -40 -1 -49 8 -7 8 -33 15 -57 17 -29 2 -43 7 -41 16 1 8 -14 12 -53 12
-40 0 -57 4 -61 15 -4 11 -21 15 -55 15 -35 0 -55 6 -68 19 -11 11 -17 22 -14
25 4 3 -10 6 -30 6 -19 0 -37 -5 -39 -12 -3 -8 -13 -4 -29 11 -19 18 -34 22
-73 20 -36 -2 -52 1 -61 14 -9 13 -27 17 -74 17 -46 0 -63 4 -67 15 -5 11 -23
15 -75 15 -39 0 -69 4 -69 10 0 6 -37 10 -90 10 -71 0 -92 3 -96 15 -5 12 -26
15 -100 15 -77 0 -94 3 -94 15 0 13 -22 15 -140 15 -85 0 -140 4 -140 10 0 6
-87 11 -227 12 -176 2 -227 6 -225 16 1 9 -63 12 -298 12 -235 0 -299 -3 -297
-12z m368 -827 c39 -40 39 -81 -1 -123 l-30 -31 0 -261 0 -260 168 -173 c92
-95 227 -235 301 -313 113 -117 139 -140 164 -140 36 0 87 -51 87 -87 0 -14
-13 -37 -30 -55 -27 -26 -36 -30 -68 -25 -47 8 -82 47 -82 92 0 28 -11 45 -68
102 -38 37 -81 86 -97 108 -16 22 -118 130 -227 241 -109 110 -198 208 -198
217 0 9 -4 19 -10 22 -6 4 -10 105 -10 269 0 250 -1 264 -20 286 -28 33 -35
65 -20 101 27 64 92 78 141 30z m299 -41 c24 -24 25 -49 5 -76 -21 -28 -21
-302 0 -330 25 -33 19 -79 -16 -108 -37 -31 -54 -32 -96 -6 -28 17 -33 26 -33
57 0 26 8 45 25 63 25 26 26 33 28 156 2 123 1 131 -22 161 -24 32 -24 34 -8
68 15 31 21 35 57 35 27 0 47 -7 60 -20z m-1225 -26 c17 -7 45 -54 45 -78 0
-8 -11 -28 -25 -44 l-24 -29 -5 -309 c-3 -170 -8 -344 -11 -388 -4 -51 -3 -82
4 -89 6 -6 11 -19 11 -29 0 -9 17 -29 37 -42 20 -14 146 -135 280 -268 l243
-242 0 -302 0 -302 28 -20 c22 -17 27 -28 27 -64 0 -62 -26 -98 -71 -98 -39 0
-72 14 -91 39 -19 24 -15 82 7 119 19 30 20 50 20 321 l0 288 -280 277 -280
278 0 413 c0 396 -1 415 -20 448 -45 77 21 153 105 121z m306 -23 c37 -38 39
-82 4 -123 l-25 -30 0 -298 c0 -282 1 -302 20 -339 34 -63 10 -114 -52 -114
-64 0 -92 87 -43 133 24 23 25 27 24 154 0 72 -4 181 -9 241 -5 61 -11 137
-12 170 -2 45 -9 68 -25 89 -70 88 39 195 118 117z m1222 0 c7 -7 12 -32 12
-57 0 -34 -5 -49 -21 -62 -21 -17 -22 -21 -16 -220 5 -196 6 -205 28 -232 30
-35 31 -83 4 -127 -17 -28 -25 -33 -59 -33 -32 0 -44 6 -65 31 -33 38 -33 66
-1 113 25 36 25 40 25 242 0 194 -1 206 -21 234 -17 23 -21 38 -16 71 3 23 11
46 19 51 17 12 96 4 111 -11z m-1823 -1 c11 -6 25 -28 31 -50 11 -37 10 -43
-9 -70 -21 -28 -22 -39 -22 -232 1 -163 4 -207 15 -222 20 -27 19 -95 -2 -118
-37 -41 -125 -8 -138 53 -5 23 -1 39 19 68 26 37 26 38 26 236 0 173 -2 201
-17 217 -23 25 -22 82 2 108 20 22 64 26 95 10z m2488 -30 c29 -18 37 -33 33
-65 0 -6 172 -183 384 -395 l385 -385 0 -297 0 -297 28 -14 c20 -10 99 -14
302 -16 381 -4 372 16 115 -242 -110 -110 -229 -224 -265 -254 -121 -99 -130
-110 -130 -154 0 -32 -6 -44 -31 -65 -36 -30 -40 -31 -79 -11 -35 18 -50 43
-50 83 0 46 30 75 83 81 44 6 54 14 277 235 126 125 230 234 230 242 0 29 -41
34 -283 34 l-244 0 -6 160 c-4 88 -10 233 -13 323 l-6 162 -367 368 c-349 350
-368 367 -403 367 -39 0 -64 18 -79 57 -11 29 0 53 37 82 33 26 41 26 82 1z
m-2818 -35 c37 -19 51 -76 26 -104 -14 -15 -16 -58 -16 -357 l1 -339 29 -39
c32 -42 37 -70 18 -110 -13 -30 -38 -40 -92 -38 -85 4 -118 93 -55 146 l31 26
-8 337 c-6 308 -9 340 -26 370 -24 39 -17 86 15 108 27 19 41 19 77 0z m1237
-100 c30 -21 35 -63 13 -110 -25 -53 -29 -94 -40 -409 l-11 -270 48 -48 c26
-26 54 -48 63 -48 9 0 45 -29 80 -65 35 -36 73 -65 83 -65 9 0 20 -8 23 -17 3
-10 10 -26 15 -35 5 -10 9 -142 9 -294 l0 -275 25 -44 c25 -41 25 -45 11 -78
-26 -63 -76 -74 -125 -28 -39 36 -41 78 -6 119 l25 30 -2 278 -3 277 -31 17
c-16 10 -55 43 -86 74 -31 31 -62 56 -70 56 -7 0 -34 21 -60 47 l-48 47 0 349
c0 334 -1 350 -20 374 -11 14 -20 35 -20 47 0 22 24 64 44 78 18 13 60 9 83
-7z m1223 -65 c28 -39 26 -81 -5 -110 l-25 -23 0 -256 c1 -209 3 -260 15 -275
33 -44 12 -102 -40 -112 -52 -9 -85 15 -85 65 0 22 6 44 15 51 13 10 15 52 15
262 l0 249 -25 33 c-30 40 -34 105 -7 129 37 33 114 27 142 -13z m-3079 -19
c35 -35 38 -77 9 -114 -19 -24 -20 -40 -20 -324 1 -246 3 -301 15 -317 23 -31
19 -83 -10 -111 -27 -28 -42 -30 -78 -14 -47 21 -60 80 -26 123 20 26 21 36
20 328 -1 242 -4 305 -16 318 -36 40 -25 112 20 131 36 14 56 10 86 -20z
m4523 -21 c6 -6 21 -10 36 -10 29 -1 74 -35 65 -50 -3 -5 -20 -17 -36 -25
l-29 -16 2 -417 3 -417 290 -5 290 -5 7 -180 c10 -277 19 -389 32 -397 6 -4
108 -8 227 -8 l216 0 38 30 c53 42 88 40 136 -9 30 -30 39 -46 39 -73 0 -52
-38 -83 -101 -83 -43 0 -53 4 -80 33 l-30 32 -248 0 c-224 0 -249 2 -264 18
-13 15 -16 57 -19 277 -4 236 -6 263 -23 289 l-19 29 -266 -6 c-146 -3 -273
-2 -283 2 -17 6 -18 31 -17 448 l1 441 -24 28 c-50 60 -45 95 11 88 20 -2 41
-9 46 -14z m-4789 -55 c28 -27 32 -70 10 -101 -10 -15 -15 -64 -19 -181 -5
-146 -3 -162 14 -189 64 -96 -40 -196 -121 -115 -39 39 -39 78 1 116 l30 29 0
155 c0 139 -2 159 -20 186 -11 17 -20 42 -20 58 0 62 79 89 125 42z m-312
-126 c47 -38 49 -72 7 -124 l-30 -38 0 -444 0 -444 26 -45 c41 -69 11 -134
-61 -134 -76 0 -114 89 -60 140 l25 23 0 458 0 457 -25 31 c-37 43 -37 97 -1
128 37 31 74 29 119 -8z m3939 -96 c35 -38 48 -66 48 -104 0 -28 18 -51 148
-181 81 -82 172 -168 202 -191 30 -23 85 -71 122 -106 l68 -64 0 -598 0 -598
29 -21 c37 -25 45 -49 31 -86 -26 -68 -72 -89 -129 -59 -50 25 -65 112 -25
146 11 9 14 58 14 275 l0 264 -25 10 c-18 7 -298 14 -412 10 -29 -1 -8 -32 92
-137 131 -138 131 -142 40 -233 -36 -35 -65 -72 -65 -82 0 -9 -5 -20 -11 -24
-6 -3 -8 -15 -5 -27 7 -29 -19 -73 -51 -84 -87 -30 -159 69 -102 141 16 21 29
26 64 26 36 0 47 4 56 22 7 12 34 46 61 74 l48 51 -29 39 c-16 21 -77 86 -135
144 -92 91 -106 109 -106 138 l0 33 143 -5 c78 -2 203 -9 277 -15 74 -7 140
-9 147 -7 10 4 13 63 13 271 l0 265 -234 0 c-129 0 -237 -4 -240 -8 -3 -5 37
-50 89 -101 l94 -92 44 6 c38 6 47 3 76 -21 30 -25 33 -32 28 -66 -9 -66 -30
-88 -85 -88 -63 0 -92 21 -92 66 0 30 -12 46 -111 142 -61 59 -126 115 -145
125 -47 26 -48 68 -1 94 28 16 62 18 276 20 134 2 246 5 249 8 6 6 -120 124
-133 125 -6 0 -82 72 -170 160 -157 158 -160 159 -196 154 -45 -7 -74 7 -99
49 -31 51 -26 94 16 133 46 44 89 46 126 7z m-3096 -31 c7 -4 13 -58 16 -142
2 -75 10 -145 16 -157 8 -14 12 -77 12 -177 l0 -156 287 0 287 0 83 -85 c45
-47 89 -97 97 -112 19 -37 130 -143 150 -143 28 0 56 -38 56 -75 0 -24 -8 -41
-27 -60 -35 -32 -63 -32 -103 2 -29 24 -31 30 -26 65 6 35 3 42 -39 87 -25 26
-45 52 -45 57 0 5 -27 36 -61 69 -33 33 -67 72 -75 88 l-15 27 -297 0 c-293 0
-297 0 -324 23 l-28 22 -1 327 c-1 179 2 331 5 337 8 13 17 14 32 3z m5243
-109 c2 -1 -8 -16 -23 -33 l-26 -32 2 -371 3 -372 285 -3 c277 -2 285 -3 307
-24 24 -22 24 -23 23 -262 -1 -137 3 -242 8 -244 10 -3 142 133 169 175 9 15
28 38 41 49 24 22 24 23 20 179 l-4 158 -39 33 c-34 28 -40 38 -40 74 0 35 6
47 33 71 18 16 39 29 48 29 24 0 71 -28 88 -52 22 -31 20 -58 -9 -100 -23 -33
-25 -47 -25 -136 0 -59 6 -119 15 -148 30 -99 33 -95 -252 -393 l-82 -86 -25
24 -26 24 -2 271 -3 271 -225 6 c-124 4 -252 11 -285 17 -33 6 -68 11 -77 11
-17 1 -18 27 -18 403 0 324 -3 404 -14 417 -19 23 -49 108 -42 120 5 7 137
-50 175 -76z m-6805 -49 c12 -46 85 -135 243 -295 l154 -156 -6 -309 c-3 -170
-8 -460 -11 -645 l-6 -336 -274 -274 c-318 -318 -311 -305 -222 -383 29 -25
57 -46 62 -46 4 0 30 -22 55 -48 26 -27 65 -57 86 -68 52 -25 69 -58 49 -96
-15 -28 -42 -48 -67 -48 -25 0 -67 51 -67 80 0 21 -18 45 -76 101 -41 41 -83
78 -92 83 -22 11 -112 98 -112 108 0 4 24 32 53 64 28 31 54 61 56 68 2 6 103
111 225 234 122 123 226 233 233 245 7 15 15 140 23 347 6 179 15 417 20 530
5 113 10 238 10 279 l0 73 -135 137 c-74 76 -135 141 -135 146 0 5 -21 31 -47
57 -44 45 -51 48 -98 48 -78 0 -127 47 -72 69 12 5 29 12 37 15 8 4 29 15 45
25 42 27 62 26 69 -5z m-393 -264 c11 -6 29 -31 40 -55 15 -31 88 -110 245
-263 l224 -219 0 -112 c0 -66 -5 -121 -12 -134 -7 -13 -13 -92 -16 -197 -4
-165 -6 -177 -28 -207 -13 -17 -24 -35 -24 -40 0 -5 -47 -55 -105 -113 -79
-79 -105 -111 -105 -131 0 -67 -101 -93 -143 -37 -18 24 -18 30 -7 58 14 33
37 50 69 50 13 0 66 46 145 125 l124 126 7 62 c4 34 9 171 11 303 l5 242 -52
43 c-29 24 -127 117 -218 205 -147 144 -170 161 -199 161 -43 0 -64 22 -64 69
0 59 51 91 103 64z m1346 -91 c7 -6 13 -26 13 -45 0 -28 12 -45 78 -111 43
-43 85 -89 94 -103 8 -14 37 -49 63 -77 l47 -53 339 0 339 0 0 -429 0 -430 27
-13 c50 -24 56 -106 12 -162 -17 -21 -29 -26 -65 -26 -96 0 -145 101 -81 168
l27 28 -2 395 -3 394 -312 3 -312 2 -38 47 c-21 25 -90 100 -152 165 -94 96
-120 118 -143 118 -33 0 -78 39 -78 67 0 25 27 62 54 73 24 11 73 5 93 -11z
m-1469 -362 c26 -24 30 -81 7 -111 -12 -16 -15 -63 -15 -252 0 -132 4 -235 9
-239 5 -3 19 9 32 27 12 18 57 69 99 113 43 44 80 91 83 105 9 36 43 70 71 70
13 0 35 -9 50 -21 52 -41 19 -129 -48 -129 -26 0 -49 -18 -148 -119 -65 -66
-118 -125 -118 -132 0 -25 -33 -49 -67 -49 l-33 0 0 294 0 293 -30 34 c-39 45
-38 73 5 116 38 38 61 38 103 0z m4215 -8 c12 -7 26 -18 30 -25 6 -11 66 -14
305 -14 356 0 332 9 332 -130 0 -49 -4 -92 -10 -95 -6 -4 -10 -84 -10 -207 0
-180 2 -203 19 -227 32 -45 31 -82 -4 -116 -47 -48 -123 -23 -140 45 -4 19 0
34 17 55 18 23 24 47 30 115 4 47 12 118 18 159 6 40 9 128 8 195 l-3 121
-273 3 c-261 2 -275 1 -299 -18 -35 -27 -78 -26 -108 5 -41 40 -27 106 27 130
41 17 35 17 61 4z m-4751 -46 c15 -15 28 -36 28 -47 0 -13 40 -60 105 -125
l105 -105 0 -317 0 -318 160 -158 160 -158 0 -310 0 -311 86 -79 c48 -44 91
-82 98 -84 6 -2 22 -12 35 -22 13 -11 35 -19 48 -19 14 0 37 -13 54 -29 36
-36 38 -79 7 -116 -49 -57 -138 -20 -138 56 0 33 -7 44 -62 93 -35 31 -67 56
-73 56 -5 0 -38 28 -72 62 l-63 62 0 273 0 273 -250 0 c-220 0 -250 2 -250 16
0 8 -23 40 -51 70 -40 41 -59 54 -81 54 -34 0 -78 39 -78 70 0 12 7 34 15 50
14 26 21 30 60 30 48 0 75 -24 75 -68 0 -13 16 -39 39 -63 22 -21 43 -48 46
-59 4 -11 14 -20 23 -21 73 -2 417 3 423 7 4 2 -53 64 -127 136 -74 73 -134
140 -134 149 0 9 -7 22 -16 29 -13 12 -14 43 -10 234 3 122 8 254 11 294 l7
73 -96 97 c-92 94 -97 97 -134 94 -55 -5 -85 21 -85 78 0 33 5 47 24 61 35 27
78 24 111 -8z m9045 -95 c26 -24 29 -64 8 -92 -12 -15 -15 -53 -15 -168 0 -81
4 -148 8 -148 4 0 60 53 124 118 78 79 119 127 123 147 8 39 18 56 38 69 13 9
25 2 62 -34 25 -24 45 -52 45 -61 0 -24 -31 -47 -67 -51 -27 -2 -90 -60 -406
-373 -205 -203 -410 -403 -455 -443 l-82 -73 0 -317 0 -317 -150 -150 c-99
-99 -150 -157 -150 -171 0 -12 -11 -33 -25 -48 -64 -69 -164 14 -109 92 10 14
25 22 46 22 25 0 52 21 169 137 l139 137 0 311 0 311 305 299 305 299 0 191
c0 191 0 192 -25 215 -30 29 -32 59 -4 94 27 34 82 36 116 4z m-5162 -53 c35
-34 33 -77 -6 -126 l-31 -39 4 -143 c3 -139 4 -144 31 -176 51 -61 23 -141
-50 -141 -73 0 -110 86 -59 139 23 24 25 35 32 178 l7 152 -32 30 c-26 24 -31
36 -31 74 0 36 5 49 22 61 34 24 85 20 113 -9z m-590 -60 c34 -33 33 -84 0
-123 -25 -29 -25 -32 -25 -212 0 -180 0 -183 25 -212 29 -35 32 -64 8 -98 -24
-35 -33 -40 -75 -40 -67 0 -99 72 -59 129 18 25 20 47 22 219 l1 192 -26 21
c-37 29 -35 74 6 116 40 42 87 45 123 8z m1863 -87 c3 -51 0 -58 -25 -77 -18
-15 -35 -20 -50 -16 -25 6 -52 -15 -205 -166 -69 -67 -78 -80 -78 -112 0 -72
-62 -99 -119 -51 -25 21 -31 33 -31 65 0 50 30 83 71 77 24 -4 38 6 96 64 37
37 72 68 78 68 5 0 34 24 63 54 36 38 52 63 52 81 0 62 59 104 115 81 28 -11
30 -17 33 -68z m-5474 11 c16 -12 26 -30 26 -46 0 -18 31 -56 120 -147 66 -68
120 -128 120 -134 0 -7 5 -12 10 -12 25 0 4 -32 -64 -98 -41 -40 -78 -72 -83
-72 -6 0 -33 -22 -62 -50 -29 -27 -57 -50 -63 -50 -7 0 -22 -10 -35 -22 -23
-21 -23 -22 -23 -302 l0 -281 167 -167 c92 -93 175 -168 185 -168 18 0 68 -54
68 -75 0 -24 -51 -75 -75 -75 -30 0 -75 53 -75 88 0 21 -21 48 -91 117 -50 50
-129 134 -175 187 l-84 97 0 275 c0 242 2 279 18 310 9 20 23 36 29 36 7 0 44
29 82 65 37 36 74 65 82 65 18 0 109 91 109 109 0 9 -44 60 -97 113 -80 81
-103 98 -128 98 -36 0 -48 7 -64 39 -19 35 -6 88 27 106 36 19 45 19 76 -6z
m2291 -9 c28 -19 48 -20 351 -20 310 0 322 -1 339 -20 17 -19 19 -44 20 -303
0 -214 4 -288 14 -309 12 -23 11 -30 -8 -56 -33 -47 -105 -51 -133 -8 -19 28
-8 76 26 109 l34 35 -5 223 c-2 123 -6 230 -8 237 -3 9 -73 12 -303 12 l-299
0 -23 -25 c-34 -36 -81 -34 -114 6 -34 40 -33 74 3 110 34 34 64 37 106 9z
m7613 -76 c65 -58 72 -73 47 -94 -13 -11 -15 -68 -15 -404 l0 -391 -145 -145
c-115 -115 -145 -150 -145 -172 0 -14 -12 -40 -26 -57 -21 -25 -33 -31 -65
-31 -57 0 -89 34 -89 94 0 42 3 48 38 71 30 20 46 24 71 19 32 -7 38 -2 160
120 l128 128 2 383 2 384 -26 17 c-14 9 -33 30 -41 45 -13 26 -13 32 1 59 9
17 21 30 29 30 7 0 40 -25 74 -56z m-7832 -182 c27 -21 39 -46 48 -94 6 -30
23 -52 94 -117 48 -44 107 -95 132 -113 56 -42 59 -73 10 -123 -19 -19 -40
-35 -48 -35 -8 0 -25 -11 -38 -25 -13 -14 -29 -25 -37 -25 -7 0 -24 -11 -37
-25 -13 -14 -31 -25 -40 -25 -9 0 -29 -13 -45 -30 -16 -16 -35 -30 -43 -30
-23 0 -74 -62 -62 -74 5 -5 10 -29 10 -51 0 -28 7 -50 21 -66 35 -40 41 -67
23 -106 -10 -19 -28 -39 -41 -44 -108 -41 -178 62 -102 149 31 35 31 38 26
107 -6 71 -6 72 26 103 18 18 38 32 45 32 6 0 27 14 45 30 19 17 40 30 47 30
7 0 23 11 36 25 13 14 29 25 37 25 7 0 24 11 37 25 13 14 31 25 40 25 9 0 27
11 39 24 l22 24 -57 43 c-32 24 -86 70 -121 103 -58 54 -65 58 -98 52 -73 -14
-138 60 -114 131 21 65 97 94 145 55z m585 -3 c33 -23 40 -71 14 -105 -11 -15
-14 -57 -14 -209 0 -152 3 -194 14 -209 21 -28 19 -51 -7 -80 -37 -41 -72 -43
-108 -8 -36 37 -38 61 -5 100 24 29 25 34 26 210 2 158 0 184 -14 200 -25 28
-21 69 9 97 33 30 47 31 85 4z m5602 -196 l167 -166 0 -319 0 -318 -135 -132
c-115 -112 -136 -137 -141 -169 -8 -50 -36 -79 -78 -79 -55 0 -93 56 -75 110
13 35 35 50 75 50 20 0 48 21 114 86 48 47 104 97 124 110 20 14 36 33 36 43
0 10 6 23 13 29 15 13 13 247 -3 296 -6 16 -10 83 -10 150 l0 121 -154 154
c-151 151 -154 153 -187 146 -19 -4 -131 -9 -249 -12 -130 -2 -219 -8 -227
-15 -10 -8 -13 -90 -13 -372 0 -311 2 -365 16 -384 9 -13 14 -37 12 -59 -6
-70 -92 -85 -127 -22 -13 23 -12 30 7 71 21 43 22 55 22 417 0 361 1 374 21
402 l20 29 302 0 302 0 168 -167z m-1010 -95 c23 -27 22 -65 -3 -106 -17 -28
-20 -50 -20 -154 0 -98 3 -125 16 -139 9 -10 17 -37 18 -60 2 -72 -69 -105
-119 -54 -30 29 -32 60 -5 100 17 26 20 47 20 152 0 115 -1 123 -25 151 -31
37 -32 61 -4 96 39 49 87 54 122 14z m-7934 -4 c12 -15 21 -35 21 -46 0 -11
70 -89 170 -191 l169 -172 1 -307 c0 -285 1 -309 18 -325 10 -10 59 -57 109
-105 99 -95 153 -126 191 -109 14 7 126 11 293 11 309 0 293 4 370 -98 64 -85
170 -192 189 -192 56 0 88 -85 50 -133 -45 -57 -130 -23 -130 52 0 32 -14 51
-116 164 l-116 127 -314 0 -313 0 -28 26 c-15 15 -50 44 -78 64 -27 21 -84 72
-125 114 l-74 76 -1 304 0 304 -155 159 c-124 127 -160 157 -178 155 -30 -4
-69 21 -84 53 -9 19 -6 30 12 59 19 31 27 36 60 36 30 0 43 -6 59 -26z m10928
11 c12 -8 31 -31 43 -50 20 -33 20 -35 4 -66 -9 -18 -25 -40 -36 -48 -17 -15
-19 -34 -22 -244 -3 -152 0 -229 7 -234 5 -3 54 39 108 94 69 71 98 108 101
129 5 49 67 68 116 36 7 -5 15 -25 19 -45 4 -29 1 -40 -20 -61 -16 -16 -37
-26 -54 -26 -22 0 -56 -28 -174 -146 -104 -104 -152 -145 -163 -141 -14 6 -16
41 -16 311 l0 305 -30 34 c-42 49 -42 105 1 141 35 30 83 34 116 11z m-585
-32 c38 -34 14 -113 -34 -113 -15 0 -110 -88 -292 -270 l-271 -270 115 -115
c63 -63 122 -115 132 -115 9 0 20 -4 23 -10 4 -6 107 -10 276 -10 257 0 271 1
298 21 34 25 72 18 101 -18 24 -31 25 -51 4 -81 -25 -37 -61 -45 -98 -25 -25
14 -67 19 -216 24 -102 4 -223 12 -270 19 l-84 11 -123 -127 c-68 -69 -123
-130 -123 -135 0 -5 103 -9 229 -9 183 0 234 3 257 15 16 8 39 15 50 15 26 0
71 -34 79 -59 17 -53 -52 -113 -106 -91 -15 7 -34 18 -40 26 -9 11 -58 14
-246 14 -137 0 -242 4 -253 10 -13 7 -21 7 -25 0 -3 -5 -15 -10 -26 -10 -13 0
-57 -38 -115 -97 -109 -112 -154 -172 -154 -204 0 -29 -37 -69 -64 -69 -29 0
-66 39 -66 70 0 29 17 47 64 70 17 8 48 40 70 70 23 30 141 156 264 280 122
124 222 232 222 239 0 8 -56 71 -125 141 -92 92 -125 132 -125 151 0 18 65 89
280 304 174 174 280 287 280 299 0 28 39 66 68 66 14 0 34 -7 44 -17z m-1840
-42 c2 -5 41 -41 88 -81 47 -40 113 -99 147 -131 41 -39 70 -59 86 -59 35 0
52 -26 51 -78 -1 -49 -29 -81 -72 -82 -37 0 -75 45 -69 83 4 29 -4 39 -96 129
-55 53 -104 95 -109 92 -4 -3 -8 -132 -8 -288 0 -233 3 -286 15 -302 8 -10 15
-36 15 -56 0 -29 -6 -41 -25 -54 -50 -32 -125 6 -125 65 0 11 11 33 25 49 l26
30 -1 326 c-1 249 2 329 12 345 13 22 34 28 40 12z m-8992 -556 c14 -13 54
-15 258 -15 l241 0 15 -32 c13 -26 16 -78 16 -322 1 -233 4 -296 15 -316 24
-42 19 -95 -11 -119 -37 -29 -70 -26 -105 8 -37 37 -37 68 1 110 l30 33 -2
276 -3 277 -221 3 -220 2 -24 -25 c-32 -34 -74 -33 -111 4 -16 16 -29 39 -29
51 0 28 29 78 49 84 27 8 83 -2 101 -19z m11970 -75 c10 -5 22 -23 28 -39 14
-41 -16 -91 -55 -91 -23 0 -66 -38 -241 -214 -118 -118 -211 -220 -207 -225 4
-8 119 -11 349 -11 286 0 346 2 355 14 27 32 100 27 123 -8 15 -23 7 -63 -17
-86 -26 -24 -79 -30 -98 -11 -8 8 -146 11 -425 11 -409 0 -452 3 -452 33 0 7
119 132 265 277 210 210 265 270 265 290 0 53 61 86 110 60z m-11615 -150 c26
-27 25 -84 -2 -112 -13 -12 -37 -22 -61 -24 -36 -2 -51 -12 -129 -91 -49 -48
-100 -95 -114 -104 -14 -9 -50 -40 -81 -68 l-56 -51 -115 0 c-109 0 -117 -1
-145 -25 -65 -55 -152 -15 -152 70 0 35 5 48 26 64 39 31 89 27 131 -9 33 -29
36 -30 140 -30 l107 0 153 152 c120 119 153 158 153 178 0 26 30 62 60 73 23
9 63 -2 85 -23z m12058 -589 c27 -11 57 -65 50 -92 -10 -36 -50 -69 -85 -69
-29 0 -49 -16 -169 -137 -128 -130 -177 -189 -166 -199 3 -3 109 -5 236 -5
l232 0 30 25 c37 31 71 33 109 6 53 -38 48 -115 -9 -144 -32 -17 -69 -10 -102
20 -12 11 -76 14 -334 16 -237 2 -319 6 -322 15 -3 7 31 49 74 94 43 44 81 88
85 98 3 9 61 70 127 136 99 97 121 125 121 148 0 72 57 113 123 88z m-12834
-11 c22 0 61 -51 61 -79 0 -16 10 -42 24 -58 13 -15 30 -41 39 -58 9 -16 56
-70 106 -120 50 -49 91 -95 91 -101 0 -6 41 -53 90 -105 50 -51 90 -97 90
-101 0 -5 21 -31 46 -58 l47 -50 275 0 c256 0 277 1 296 19 36 32 61 34 92 8
21 -18 28 -33 28 -60 0 -74 -72 -102 -130 -52 -23 21 -35 25 -59 19 -16 -4
-136 -9 -266 -11 -203 -3 -238 -2 -249 12 -7 8 -18 15 -25 15 -17 0 -75 57
-75 73 0 7 -43 55 -95 107 -52 52 -95 101 -95 108 0 7 -43 57 -95 111 -52 54
-95 102 -95 107 0 6 -20 30 -44 54 -40 40 -48 44 -85 41 -32 -2 -46 3 -65 22
-34 34 -43 73 -24 106 18 29 76 64 96 56 8 -3 17 -5 21 -5z m604 -60 c14 -11
28 -33 32 -49 7 -31 245 -281 268 -281 7 0 71 59 142 130 72 72 144 138 160
146 25 12 81 15 328 14 l298 -1 43 26 c54 32 77 32 115 -1 23 -19 31 -34 31
-59 0 -25 -8 -40 -31 -59 -38 -33 -73 -33 -115 -1 l-33 25 -303 0 -303 0 -160
-160 c-88 -88 -167 -160 -175 -160 -8 0 -80 65 -159 144 -140 141 -144 144
-180 139 -47 -6 -80 19 -87 68 -5 28 -1 41 21 67 32 38 70 42 108 12z m10333
-45 c16 -12 106 -14 609 -15 l590 0 15 -22 c12 -19 16 -77 20 -293 l5 -270
238 -3 c200 -2 242 0 260 13 52 36 117 2 117 -61 0 -68 -73 -96 -128 -49 -29
24 -32 24 -258 28 -126 2 -247 8 -269 13 l-40 9 -2 274 c-2 273 -2 274 -25
290 -21 14 -68 16 -448 13 -234 -2 -433 -8 -442 -13 -9 -5 -58 -9 -108 -9 -84
0 -95 -2 -122 -25 -37 -31 -79 -32 -114 -2 -75 65 23 182 102 122z m-9413
-272 c9 -9 17 -23 17 -32 0 -26 330 -350 381 -375 37 -18 44 -26 47 -55 4 -39
-29 -81 -63 -81 -36 0 -75 37 -75 71 0 24 -27 56 -165 194 -108 108 -172 165
-185 165 -50 0 -86 42 -75 89 11 49 75 62 118 24z m10310 -15 c28 -22 32 -69
7 -101 -28 -36 -65 -35 -105 2 l-30 29 -425 -9 c-577 -12 -607 -14 -643 -45
-39 -33 -73 -31 -108 7 -36 38 -36 49 -3 88 19 23 34 31 59 31 19 0 37 -4 40
-10 4 -6 199 -10 553 -10 465 1 550 3 566 15 24 18 66 19 89 3z m-12105 -19
c17 -6 34 -20 38 -32 11 -36 265 -287 290 -287 27 0 64 -44 64 -74 0 -49 -53
-92 -93 -77 -39 15 -57 40 -57 79 0 34 -10 47 -112 149 -105 104 -116 112
-150 110 -88 -3 -110 106 -28 136 8 3 15 6 16 6 1 1 15 -4 32 -10z m5092 -125
c0 -8 11 -25 25 -38 14 -13 25 -30 25 -37 0 -20 43 -56 48 -41 6 18 309 17
315 0 3 -10 9 -10 27 0 17 10 87 13 308 11 158 0 294 0 302 2 10 3 14 -2 12
-16 -3 -16 -1 -18 9 -7 7 6 22 12 34 12 12 0 27 -6 34 -12 11 -11 13 -10 8 5
-6 15 2 17 73 17 69 0 80 2 80 18 1 16 1 16 14 -1 12 -16 30 -18 147 -17 74 1
133 -2 132 -7 -1 -5 13 -9 32 -9 19 0 32 4 29 8 -6 10 26 -2 44 -16 10 -7 13
-6 11 5 -3 17 10 49 21 49 4 0 7 -8 6 -17 -1 -15 6 -17 41 -15 36 3 42 1 37
-12 -4 -11 0 -16 11 -16 11 0 15 5 11 15 -4 12 4 15 38 15 27 0 48 -6 56 -15
7 -8 19 -15 26 -15 8 0 14 7 14 15 0 23 165 22 174 -1 6 -16 8 -16 24 0 14 12
39 16 110 16 l92 0 0 30 c0 17 -4 30 -10 30 -5 0 -10 11 -10 25 0 14 5 25 10
25 6 0 10 -11 10 -24 0 -13 7 -26 15 -30 11 -4 14 -13 9 -32 -5 -20 -4 -25 5
-19 15 9 51 -27 51 -50 0 -9 12 -27 28 -41 15 -15 26 -34 24 -45 -2 -12 3 -19
12 -19 9 0 16 -9 16 -20 0 -12 12 -32 28 -47 15 -14 26 -31 24 -37 -1 -7 11
-25 28 -41 16 -16 30 -34 30 -41 0 -7 11 -25 25 -40 14 -15 25 -35 25 -44 0
-10 7 -20 15 -24 8 -3 15 -14 15 -24 0 -11 11 -28 25 -38 14 -10 25 -27 25
-37 0 -10 14 -30 30 -44 17 -13 30 -33 30 -43 0 -10 5 -22 10 -25 6 -3 10 -14
10 -24 0 -10 14 -28 30 -41 17 -13 30 -31 30 -40 0 -9 11 -27 25 -40 14 -13
25 -32 25 -42 0 -10 7 -21 15 -24 8 -4 15 -11 15 -17 0 -5 11 -25 25 -43 14
-18 25 -39 25 -47 0 -7 11 -24 25 -37 14 -13 25 -31 25 -40 0 -9 13 -27 30
-40 16 -14 29 -32 30 -41 0 -9 6 -22 14 -29 8 -6 13 -17 10 -24 -2 -6 9 -25
26 -41 16 -16 30 -35 30 -42 0 -8 11 -24 25 -37 14 -13 25 -30 25 -38 0 -9 7
-21 15 -28 8 -7 15 -21 15 -30 0 -10 11 -27 25 -38 14 -11 25 -27 25 -37 0 -9
13 -27 30 -41 16 -14 27 -31 24 -38 -3 -7 2 -19 11 -26 8 -7 15 -19 15 -28 0
-8 14 -28 30 -44 17 -16 28 -32 26 -37 -3 -4 8 -21 24 -36 17 -16 30 -36 30
-46 0 -9 7 -22 15 -29 8 -7 12 -16 10 -21 -3 -4 8 -20 25 -35 16 -15 30 -35
30 -44 0 -10 7 -23 15 -30 8 -7 15 -18 15 -25 0 -7 11 -24 25 -39 14 -15 25
-34 25 -43 0 -8 11 -24 25 -35 14 -11 25 -28 25 -38 0 -9 6 -23 14 -29 8 -7
22 -27 31 -46 9 -19 20 -35 25 -35 6 0 10 -9 10 -21 0 -11 13 -31 30 -45 16
-14 27 -31 24 -37 -2 -7 9 -26 26 -42 16 -16 30 -37 30 -47 0 -10 5 -18 10
-18 6 0 10 -8 10 -18 0 -10 14 -31 30 -47 17 -16 30 -36 30 -45 0 -9 11 -27
25 -40 14 -13 25 -31 25 -41 0 -9 7 -19 15 -23 8 -3 15 -14 15 -24 0 -10 11
-29 25 -42 14 -13 25 -31 25 -40 0 -9 11 -27 25 -40 40 -38 27 -107 -30 -162
-14 -13 -25 -30 -25 -39 0 -8 -11 -26 -25 -39 -14 -13 -25 -31 -25 -41 0 -9
-7 -22 -15 -29 -8 -7 -15 -18 -15 -24 0 -7 -11 -23 -25 -36 -14 -13 -25 -31
-25 -40 0 -9 -11 -27 -25 -40 -14 -13 -25 -32 -25 -42 0 -10 -7 -21 -15 -24
-8 -4 -15 -14 -15 -23 0 -10 -11 -28 -25 -41 -14 -13 -25 -31 -25 -40 0 -9
-13 -29 -29 -44 -16 -16 -27 -34 -24 -42 3 -8 -2 -17 -11 -20 -9 -3 -16 -14
-16 -23 0 -10 -14 -30 -30 -46 -17 -16 -28 -35 -26 -41 2 -6 -9 -24 -25 -40
-16 -15 -29 -35 -29 -45 0 -9 -7 -20 -16 -23 -9 -3 -14 -12 -11 -20 3 -8 -8
-26 -24 -42 -16 -15 -29 -35 -29 -44 0 -9 -11 -27 -25 -40 -14 -13 -25 -31
-25 -41 0 -9 -7 -19 -15 -23 -8 -3 -15 -14 -15 -24 0 -10 -11 -29 -25 -42 -14
-13 -25 -32 -25 -41 0 -10 -13 -28 -30 -41 -16 -12 -30 -30 -30 -39 0 -10 -4
-21 -10 -24 -5 -3 -10 -14 -10 -24 0 -9 -13 -30 -30 -46 -16 -16 -30 -37 -30
-47 0 -10 -4 -18 -10 -18 -5 0 -10 -8 -10 -18 0 -10 -14 -31 -30 -47 -17 -16
-28 -35 -26 -42 3 -6 -8 -23 -24 -37 -17 -14 -30 -34 -30 -44 0 -11 -7 -22
-15 -26 -8 -3 -15 -12 -15 -21 0 -9 -11 -28 -25 -43 -14 -15 -25 -34 -25 -44
0 -9 -11 -25 -25 -36 -14 -11 -25 -27 -25 -35 0 -8 -7 -20 -15 -27 -8 -7 -15
-20 -15 -29 0 -10 -11 -28 -25 -41 -14 -13 -25 -31 -25 -40 0 -9 -13 -27 -30
-40 -16 -13 -30 -31 -30 -41 0 -10 -4 -21 -10 -24 -5 -3 -10 -15 -10 -25 0
-10 -13 -30 -30 -43 -16 -14 -30 -34 -30 -44 0 -10 -11 -27 -25 -37 -14 -10
-25 -27 -25 -38 0 -10 -7 -21 -15 -24 -8 -4 -15 -15 -15 -26 0 -12 -11 -31
-25 -44 -14 -13 -25 -29 -25 -37 0 -7 -13 -26 -29 -41 -16 -16 -27 -34 -24
-42 3 -8 -2 -17 -11 -20 -9 -3 -16 -14 -16 -23 0 -10 -14 -31 -31 -49 -17 -17
-28 -36 -25 -41 3 -5 -7 -21 -24 -34 -16 -14 -30 -35 -30 -45 0 -11 -7 -23
-16 -26 -9 -3 -14 -13 -11 -21 4 -8 -6 -24 -23 -39 -17 -14 -30 -32 -30 -42 0
-9 -11 -27 -25 -40 -14 -13 -25 -32 -25 -44 0 -11 -7 -20 -15 -20 -9 0 -15 -9
-15 -22 0 -21 -26 -58 -40 -58 -4 0 -10 9 -13 20 -3 12 -14 20 -26 20 -12 0
-30 -9 -41 -20 -16 -16 -20 -17 -20 -5 0 22 -275 22 -284 0 -3 -8 -10 -15 -16
-15 -6 0 -3 11 6 25 21 33 15 38 -20 20 -35 -18 -115 -19 -152 -3 -22 10 -28
10 -32 0 -3 -9 -68 -12 -273 -12 -234 0 -268 -2 -263 -15 4 -10 0 -15 -11 -15
-13 0 -15 6 -10 30 6 26 4 30 -14 30 -23 0 -28 -15 -8 -23 6 -3 -50 -6 -125
-6 -116 -1 -138 1 -138 14 0 8 -4 15 -10 15 -14 0 -13 -23 2 -38 9 -9 9 -12 0
-12 -7 0 -12 5 -12 10 0 6 -19 9 -42 9 -24 -1 -33 -4 -20 -6 33 -6 27 -23 -9
-23 -28 0 -30 3 -26 28 2 15 2 21 0 15 -6 -18 -43 -16 -43 2 0 8 -4 15 -9 15
-5 0 -8 -8 -7 -17 1 -13 -6 -18 -25 -18 -18 1 -25 -4 -22 -12 4 -9 -7 -13 -36
-13 -41 0 -55 13 -26 24 8 3 15 13 15 23 -1 17 -1 17 -14 1 -10 -14 -28 -18
-86 -18 -58 0 -76 -4 -86 -17 -13 -17 -13 -17 -14 0 0 15 -14 17 -150 17 -113
0 -150 3 -151 13 0 9 -2 9 -6 -1 -3 -7 -19 -20 -35 -28 -25 -13 -30 -13 -26
-2 7 16 -43 19 -54 3 -8 -12 -13 -7 -22 23 -6 16 -3 22 8 22 9 0 16 9 16 20 0
11 7 23 15 26 8 4 12 10 9 15 -3 5 2 12 10 15 9 3 16 17 16 30 0 15 11 32 31
46 19 14 28 29 26 40 -3 9 1 19 9 22 8 3 14 14 14 24 0 10 13 31 29 46 16 16
27 34 25 41 -3 7 9 24 25 38 17 14 31 35 31 46 0 12 5 21 10 21 6 0 10 10 10
23 1 12 14 33 30 47 17 13 30 31 30 40 0 9 11 27 25 40 14 13 25 31 25 41 0 9
6 22 14 29 8 6 13 17 10 24 -3 7 9 23 26 36 16 13 30 31 30 40 0 9 11 27 25
40 14 13 25 31 25 41 0 9 7 22 15 29 8 7 15 19 15 28 0 8 11 25 25 38 14 13
25 30 25 40 0 9 11 25 25 36 14 11 25 28 25 38 0 9 7 23 15 30 8 7 15 21 15
30 0 10 11 27 25 38 14 11 25 27 25 37 0 9 14 29 31 45 17 15 29 33 25 38 -3
5 1 15 9 22 8 7 15 20 15 29 0 10 13 30 29 45 16 16 27 34 25 40 -3 7 9 23 26
36 16 13 30 28 30 35 0 20 37 90 59 109 12 11 21 26 21 34 0 8 11 25 25 38 14
13 25 29 25 37 0 8 7 20 15 27 8 7 15 20 15 29 0 10 11 28 25 41 14 13 25 31
25 41 0 10 11 26 25 37 14 11 25 27 25 35 0 8 7 20 15 27 8 7 15 20 15 29 0
10 11 28 25 41 14 13 25 32 25 42 0 10 7 21 15 24 8 4 15 14 15 23 0 10 11 28
25 41 14 13 25 31 25 40 0 9 11 27 25 40 14 13 25 32 25 42 0 10 7 21 15 24 8
4 15 15 15 26 0 11 11 29 25 40 14 11 25 27 25 37 0 9 14 30 30 46 17 16 30
37 30 47 0 10 5 18 10 18 6 0 10 8 10 18 0 10 14 31 30 47 17 16 30 36 30 45
0 9 11 27 25 40 14 13 25 31 25 41 0 9 7 22 15 29 8 7 15 18 15 24 0 7 11 23
25 36 14 13 25 31 25 40 0 9 11 27 25 40 14 13 25 32 25 42 0 10 7 21 15 24 8
4 15 14 15 24 0 10 -7 23 -15 30 -8 7 -15 20 -15 30 0 10 -6 23 -14 30 -8 6
-13 17 -10 24 3 7 -9 23 -26 36 -16 13 -30 31 -30 40 0 9 -11 27 -25 40 -14
13 -25 31 -25 41 0 9 -7 22 -15 29 -8 7 -15 19 -15 27 0 8 -11 24 -25 37 -14
13 -25 30 -25 38 0 8 -11 25 -25 38 -14 13 -25 31 -25 41 0 9 -7 22 -15 29 -8
7 -15 19 -15 27 0 8 -11 24 -25 37 -14 13 -25 30 -25 38 0 8 -14 27 -30 43
-17 16 -28 35 -26 41 3 7 -2 18 -10 24 -8 7 -14 20 -14 30 0 9 -14 27 -30 40
-17 13 -29 29 -26 36 2 6 -9 24 -25 40 -16 15 -29 35 -29 45 0 9 -7 22 -15 29
-8 7 -12 17 -9 22 4 5 -8 23 -25 38 -17 16 -31 35 -31 43 0 7 -11 24 -25 37
-14 13 -25 31 -25 41 0 9 -7 22 -15 29 -8 7 -15 19 -15 28 0 8 -11 25 -25 38
-14 13 -25 30 -25 40 0 9 -11 25 -25 36 -14 11 -25 28 -25 38 0 9 -7 23 -15
30 -8 7 -15 20 -15 29 0 10 -11 28 -25 41 -14 13 -25 29 -25 36 0 7 -11 25
-25 40 -14 15 -25 32 -25 39 0 7 -7 18 -15 25 -8 7 -15 20 -15 29 0 10 -13 30
-29 45 -16 16 -27 34 -25 40 3 7 -9 23 -26 36 -16 13 -30 31 -30 41 0 10 -4
21 -10 24 -5 3 -10 14 -10 24 0 9 -13 30 -30 46 -16 16 -30 35 -30 42 0 8 -11
24 -25 37 -14 13 -25 32 -25 44 0 11 -7 22 -15 26 -8 3 -15 14 -15 24 0 10
-11 29 -25 42 -14 13 -25 31 -25 40 0 10 -11 26 -25 36 -14 10 -25 28 -25 40
0 12 -7 24 -15 28 -8 3 -15 14 -15 24 0 10 -11 29 -25 42 -14 13 -25 31 -25
41 0 9 -7 22 -15 29 -8 7 -15 19 -15 27 0 8 -11 24 -25 37 -14 13 -25 31 -25
40 0 9 -11 27 -25 40 -14 13 -25 32 -25 44 0 11 -7 22 -15 26 -8 3 -15 13 -15
22 0 9 -11 27 -25 40 -14 13 -25 32 -25 42 0 11 -11 28 -25 38 -14 10 -25 29
-25 42 0 12 -7 25 -15 28 -8 4 -15 12 -15 20 0 8 -4 14 -9 14 -5 0 -12 11 -15
25 -4 14 -11 25 -16 25 -6 0 -10 11 -10 25 0 16 -6 25 -15 25 -8 0 -15 7 -15
15 0 8 -7 15 -16 15 -11 0 -14 5 -10 16 3 9 6 20 6 25 0 6 5 7 10 4 6 -3 10
-13 10 -21z m5895 -154 c29 -19 48 -20 405 -20 l375 0 160 -160 160 -160 293
0 293 0 27 29 c48 51 106 49 147 -7 30 -41 25 -89 -13 -123 -45 -40 -82 -38
-126 5 l-34 34 -307 -5 -307 -6 -162 162 -162 162 -355 -3 c-349 -3 -355 -3
-398 -26 -68 -37 -131 -7 -131 62 0 66 74 96 135 56z m-11184 -123 c26 -17 35
-31 37 -57 2 -31 29 -61 224 -252 l222 -218 179 0 c99 0 230 5 291 12 62 6
124 8 138 5 14 -4 42 -24 61 -44 65 -72 142 -160 187 -217 l45 -56 261 0 c238
0 263 2 285 18 38 29 58 33 93 18 66 -28 70 -118 5 -151 -40 -21 -51 -19 -94
15 l-38 31 -270 -1 c-314 -1 -265 -20 -412 155 -142 169 -123 158 -257 151
-62 -3 -201 -8 -308 -11 l-195 -6 -225 224 -225 224 -45 0 c-47 0 -74 22 -86
69 -9 34 14 82 45 99 35 19 43 19 82 -8z m13725 -25 c36 -30 39 -58 9 -88 -17
-17 -33 -24 -47 -21 -15 4 -41 -14 -107 -77 -47 -45 -110 -101 -139 -125 -55
-45 -59 -61 -13 -61 16 0 34 -7 41 -15 7 -9 29 -15 52 -15 22 0 46 -7 54 -15
9 -8 33 -15 54 -15 21 0 42 -4 45 -10 3 -5 20 -10 37 -10 17 0 40 -8 50 -17
17 -15 21 -15 53 0 33 16 35 16 65 -9 37 -32 39 -66 5 -99 -33 -34 -52 -31
-91 10 -25 27 -41 35 -67 35 -19 0 -40 7 -47 15 -7 9 -29 15 -55 15 -26 0 -48
6 -55 15 -7 9 -29 15 -51 15 -21 0 -41 5 -44 10 -3 6 -23 10 -44 10 -22 0 -44
6 -51 15 -7 8 -24 15 -38 15 -29 0 -62 26 -62 48 0 16 95 112 111 112 18 0
211 194 230 232 26 51 66 63 105 30z m-11635 -161 c16 -17 29 -40 29 -54 0
-36 -36 -77 -68 -77 -15 0 -39 -11 -54 -25 -15 -14 -33 -25 -40 -25 -7 0 -67
-54 -133 -120 -66 -66 -127 -120 -136 -120 -16 0 -309 288 -317 311 -2 5 -114
9 -277 9 -230 0 -274 -2 -285 -15 -7 -9 -29 -15 -51 -15 -34 0 -42 5 -59 33
-26 41 -25 49 6 86 36 44 75 42 110 -4 26 -35 51 -44 70 -25 5 5 111 10 253
10 l244 1 95 -93 c51 -51 103 -106 115 -123 33 -48 70 -85 85 -85 8 0 54 38
101 85 48 47 92 85 98 85 5 0 25 15 44 34 24 25 34 44 35 70 2 80 80 112 135
57z m9631 -18 c17 -15 18 -43 18 -465 0 -432 1 -448 19 -448 10 0 24 7 31 15
7 8 20 15 29 15 10 0 28 11 41 25 13 14 32 25 42 25 10 0 21 7 24 15 4 8 14
15 23 15 10 0 28 11 41 25 13 14 31 25 41 25 9 0 22 7 29 15 7 8 18 15 25 15
7 0 24 11 39 25 15 14 33 25 41 25 8 0 16 4 19 9 9 14 85 51 106 51 10 0 22
-5 26 -12 4 -7 9 -147 10 -313 3 -250 1 -304 -12 -322 -14 -23 -16 -23 -275
-23 l-260 0 -35 -27 c-34 -26 -36 -26 -70 -10 -81 39 -59 147 31 147 17 0 40
-7 52 -15 18 -13 60 -15 255 -13 l233 3 2 225 c3 224 -4 278 -28 238 -5 -10
-18 -18 -28 -18 -10 0 -24 -6 -30 -14 -7 -8 -26 -22 -44 -31 -45 -23 -68 -37
-102 -61 -17 -11 -37 -24 -45 -27 -16 -7 -38 -21 -85 -52 -38 -25 -66 -42 -85
-51 -8 -4 -30 -18 -48 -31 -20 -15 -43 -23 -60 -21 l-27 3 -7 395 c-7 403 -11
480 -30 480 -5 0 -29 -19 -51 -43 -23 -23 -58 -55 -79 -70 -20 -15 -39 -40
-43 -55 -12 -52 -33 -72 -72 -72 -48 0 -73 24 -73 70 0 43 21 66 71 81 24 6
71 48 159 138 71 74 133 130 144 130 11 1 28 -6 38 -16z m-11834 -275 c16 -16
22 -33 22 -64 0 -41 1 -43 258 -290 251 -243 275 -264 318 -283 33 -15 447 1
467 18 22 18 21 30 -2 39 -10 4 -60 46 -110 95 -77 73 -96 86 -116 81 -31 -8
-75 34 -75 71 0 36 50 85 86 85 38 0 74 -36 74 -74 0 -26 17 -48 102 -133 57
-57 108 -103 114 -103 19 0 104 -90 104 -110 0 -15 -10 -20 -52 -24 -109 -11
-429 -17 -546 -10 l-122 7 -131 128 c-73 71 -135 129 -139 129 -6 0 -136 -79
-306 -186 -12 -7 -24 -28 -28 -47 -18 -95 -144 -116 -196 -32 -28 45 -25 79 9
117 28 31 33 33 98 34 67 0 69 1 193 78 185 116 179 94 55 217 -78 76 -114
104 -133 106 -15 0 -33 2 -40 2 -29 2 -62 49 -62 89 0 80 97 116 158 60z
m12140 -34 c33 -15 105 -17 602 -18 l565 -1 3 -30 c2 -27 -14 -47 -148 -180
-100 -100 -150 -157 -150 -171 0 -57 -85 -92 -116 -49 -32 43 -8 115 38 115
12 0 65 44 135 113 l115 113 -26 17 c-20 13 -31 15 -45 7 -13 -6 -182 -10
-475 -10 l-455 0 -21 -31 c-30 -42 -63 -53 -100 -34 -38 20 -50 43 -50 100 0
42 3 47 33 60 42 18 50 18 95 -1z m1488 -282 c30 -24 36 -52 19 -86 -12 -23
-15 -78 -15 -292 l0 -264 234 0 c146 0 237 4 241 10 10 16 61 11 85 -8 31 -25
30 -79 -2 -104 -32 -25 -61 -22 -97 7 l-30 26 -237 -2 c-229 -1 -238 0 -245
19 -4 11 -12 23 -18 27 -7 4 -11 95 -11 277 l0 270 -25 30 c-31 37 -31 39 1
77 30 35 67 40 100 13z m-11523 -313 c9 -12 17 -38 17 -59 0 -33 -5 -41 -34
-59 -43 -27 -58 -26 -93 3 -25 21 -40 24 -113 26 -47 1 -91 2 -97 1 -10 -1
-13 -120 -13 -560 l0 -559 25 -30 c32 -38 32 -66 0 -97 -33 -34 -67 -32 -99 6
-32 38 -32 40 -1 89 l25 40 0 574 c0 412 3 577 11 582 6 4 53 6 105 5 89 -2
95 -1 120 24 15 15 36 31 48 36 31 13 78 2 99 -22z m11294 9 c17 -15 23 -33
23 -62 0 -77 -75 -114 -124 -61 l-23 24 -249 1 c-137 0 -255 0 -261 0 -10 0
-13 -26 -13 -96 0 -52 -5 -104 -11 -116 -6 -11 -13 -104 -16 -209 l-6 -189
-372 0 -371 0 -34 -25 c-42 -31 -77 -32 -115 -1 -23 19 -29 31 -28 60 2 70 65
102 133 67 34 -18 60 -19 376 -17 l339 1 5 275 c4 242 7 279 23 303 l17 27
291 0 c276 0 292 1 316 20 33 26 71 25 100 -2z m-352 -274 c15 -10 27 -30 31
-52 5 -28 29 -60 98 -133 50 -52 104 -112 119 -132 l28 -37 398 0 c334 0 400
2 417 15 33 25 79 19 108 -16 33 -39 33 -54 -3 -90 -34 -34 -62 -36 -106 -9
-30 18 -51 20 -371 20 -186 1 -340 -3 -342 -8 -1 -4 48 -59 110 -120 l113
-112 256 0 c216 0 259 2 269 15 16 20 70 19 98 -1 16 -11 22 -25 22 -54 0 -70
-67 -104 -121 -61 -14 11 -48 21 -79 24 -30 3 -82 10 -115 16 -33 5 -133 10
-222 10 l-161 1 -142 142 c-78 78 -153 157 -168 177 -14 20 -75 87 -136 149
-104 105 -113 112 -150 112 -53 0 -86 31 -86 79 0 69 74 105 135 65z m-13311
-19 c16 -12 66 -15 277 -15 l257 0 169 -171 c92 -94 185 -180 205 -190 21 -11
45 -31 55 -45 16 -24 16 -28 -2 -60 -17 -32 -22 -35 -59 -32 -42 3 -58 21 -70
78 -4 14 -72 93 -158 183 l-153 157 -220 1 c-121 0 -229 4 -240 8 -14 6 -28 2
-48 -15 -55 -47 -127 -22 -127 43 0 61 66 94 114 58z m1110 -30 c17 -13 74
-15 336 -15 289 0 318 -2 333 -17 12 -15 16 -52 19 -190 2 -120 7 -176 16
-185 9 -9 12 -66 12 -215 0 -176 -2 -204 -16 -210 -19 -7 -84 53 -84 79 0 10
-7 21 -15 24 -8 4 -15 14 -15 23 0 10 -11 28 -25 41 -14 13 -25 31 -25 41 0 9
-7 22 -15 29 -8 7 -15 19 -15 28 0 8 -11 25 -25 38 -14 13 -25 32 -25 42 0 11
-7 22 -15 26 -8 3 -15 14 -15 24 0 11 -6 25 -14 31 -8 7 -22 27 -31 46 -26 55
-52 46 -102 -35 -12 -20 -33 -46 -47 -59 -14 -13 -23 -28 -20 -33 4 -6 -13
-30 -37 -54 -23 -24 -44 -51 -45 -61 -2 -10 -8 -19 -13 -21 -6 -2 -11 -18 -11
-35 0 -43 -25 -67 -71 -67 -28 0 -42 6 -53 22 -32 46 -11 108 37 108 22 0 67
36 67 54 0 6 18 31 40 54 22 24 38 47 35 51 -2 4 14 25 35 46 22 22 40 45 40
51 0 7 21 36 47 64 39 43 51 51 77 48 22 -2 32 -9 35 -23 2 -11 9 -24 17 -28
8 -4 14 -13 14 -19 0 -6 11 -26 25 -44 14 -18 25 -39 25 -47 0 -8 7 -20 15
-27 8 -7 15 -18 15 -24 0 -7 11 -23 25 -36 14 -13 25 -31 25 -41 0 -9 7 -22
15 -29 8 -7 15 -19 15 -27 0 -20 39 -59 48 -47 4 5 4 92 0 194 -10 258 -17
328 -33 333 -7 3 -139 7 -294 8 -276 2 -281 2 -304 -19 -28 -27 -68 -28 -95
-4 -31 26 -34 53 -12 90 16 26 26 32 52 32 18 0 42 -7 52 -15z m-919 -305
c160 0 214 3 242 15 38 16 81 19 99 7 15 -10 34 -47 34 -67 0 -24 -46 -65 -73
-65 -14 0 -35 8 -47 18 -21 17 -41 18 -234 15 -118 -2 -228 -9 -249 -15 -35
-11 -40 -10 -65 15 -22 23 -25 30 -16 54 13 39 52 57 81 38 18 -12 64 -15 228
-15z m13027 -207 c17 -11 32 -29 35 -45 5 -27 61 -83 252 -257 l92 -84 485 5
c356 3 487 7 496 16 18 18 73 14 91 -6 30 -33 32 -76 5 -105 -37 -40 -61 -42
-101 -7 l-35 30 -308 -1 c-170 -1 -383 -4 -474 -8 -151 -5 -168 -4 -205 14
-22 10 -108 86 -191 167 -129 127 -155 148 -182 148 -70 0 -96 78 -41 124 36
31 42 31 81 9z m-13287 -94 c26 -21 34 -22 168 -16 78 4 160 11 182 17 22 5
135 10 252 10 182 0 217 -2 247 -17 26 -14 36 -24 36 -43 0 -26 -53 -100 -71
-100 -10 0 -99 -63 -160 -115 -126 -104 -116 -99 -219 -108 -52 -4 -176 -10
-275 -13 -129 -4 -185 -10 -199 -20 -31 -22 -74 -17 -101 11 -14 13 -25 31
-25 40 0 20 19 57 34 67 19 13 71 9 92 -7 15 -11 58 -14 214 -15 241 0 295 8
365 55 30 19 57 40 60 45 4 6 30 25 58 44 29 18 63 45 76 59 22 24 22 27 7 33
-24 9 -422 -5 -472 -16 -21 -5 -88 -10 -147 -10 -74 0 -117 -5 -136 -14 -34
-18 -70 -11 -93 18 -25 30 -22 63 7 91 30 31 64 32 100 4z m12316 -18 c36 -15
54 -17 94 -11 28 5 126 9 218 9 192 1 195 0 257 -84 21 -28 84 -100 141 -159
57 -60 113 -121 125 -137 11 -15 57 -67 102 -114 l82 -87 287 2 c169 0 292 5
297 10 16 16 78 11 98 -7 22 -20 23 -70 1 -95 -20 -22 -85 -24 -103 -3 -10 12
-47 15 -219 14 -113 0 -242 -4 -286 -8 -98 -9 -122 -2 -159 51 -17 23 -71 84
-121 137 -50 53 -116 128 -148 167 -31 39 -95 108 -142 153 -78 75 -88 81
-118 77 -17 -3 -111 -8 -207 -11 -125 -5 -180 -11 -194 -21 -11 -8 -35 -14
-52 -14 -73 0 -96 106 -30 138 29 14 28 14 77 -7z m124 -237 c14 -15 25 -36
25 -48 0 -12 4 -26 8 -33 4 -6 137 -142 295 -302 158 -159 287 -293 287 -297
0 -4 -10 -16 -22 -26 -22 -20 -33 -20 -335 -13 l-312 7 -34 -26 c-19 -14 -46
-26 -61 -26 -37 0 -86 49 -86 87 0 27 22 70 44 85 24 17 75 7 107 -19 l33 -28
244 -3 c135 -2 249 1 253 5 14 14 -480 503 -507 503 -30 0 -84 52 -84 81 0 13
12 36 27 51 36 38 84 38 118 2z m-10850 -39 c30 -30 31 -54 4 -89 -21 -27 -75
-36 -94 -17 -18 18 -138 30 -353 37 l-212 7 -26 -24 c-29 -26 -156 -168 -218
-242 -21 -26 -58 -57 -82 -68 -40 -21 -48 -21 -136 -10 -51 7 -183 15 -294 18
-194 6 -203 5 -237 -15 -66 -42 -127 -16 -127 53 0 63 65 97 116 61 17 -12 80
-15 340 -17 l319 -2 151 157 152 158 203 -2 c112 -1 239 -5 281 -9 64 -5 84
-3 110 11 46 24 75 22 103 -7z m-355 -320 c20 -11 73 -14 245 -15 l221 0 134
-93 c186 -127 290 -193 320 -200 33 -8 55 -43 39 -63 -9 -12 -67 -14 -334 -14
-275 0 -324 -2 -335 -15 -8 -9 -29 -15 -56 -15 -33 0 -46 5 -58 22 -25 35 -20
83 10 107 34 26 64 27 97 1 23 -19 40 -20 236 -20 138 0 211 4 211 10 0 6 -8
14 -17 17 -10 4 -78 46 -152 95 l-134 88 -202 0 c-168 0 -205 -3 -215 -15 -7
-8 -27 -15 -45 -15 -65 0 -91 74 -41 117 31 27 42 28 76 8z m12900 -280 c25
-24 30 -25 230 -27 l205 -3 3 -31 c3 -28 -20 -53 -278 -309 -154 -153 -280
-283 -280 -287 0 -13 99 -9 128 6 16 8 64 14 121 15 52 1 102 6 112 12 10 5
36 9 58 9 34 0 44 5 63 31 29 39 67 59 114 59 29 0 44 -8 75 -39 31 -31 39
-46 39 -75 0 -77 -50 -126 -129 -126 -33 0 -49 7 -81 36 -38 34 -42 36 -92 30
-29 -4 -100 -10 -158 -14 -58 -5 -115 -14 -127 -20 -12 -7 -63 -12 -115 -12
-66 -1 -99 -5 -112 -15 -26 -20 -32 -19 -56 7 -13 15 -17 25 -10 32 5 5 10 16
10 24 0 8 73 84 162 170 418 405 403 389 389 406 -19 22 -247 24 -277 1 -10
-8 -36 -15 -57 -15 -71 0 -111 72 -71 128 33 47 89 50 134 7z m-14177 -18 c18
-10 105 -11 437 -5 228 4 441 10 474 13 l59 7 123 -123 c68 -68 124 -128 124
-134 0 -6 12 -23 26 -38 l26 -28 416 3 c364 3 422 6 453 20 42 20 77 14 101
-16 22 -26 23 -55 3 -83 -23 -32 -61 -37 -108 -13 -40 21 -45 21 -476 14
l-436 -7 -28 23 c-15 12 -46 47 -69 77 -22 31 -72 89 -111 130 l-71 74 -456
-3 c-414 -3 -458 -5 -483 -20 -14 -10 -38 -18 -52 -18 -31 0 -75 41 -75 70 0
29 44 70 75 70 14 0 36 -6 48 -13z m13785 -84 c188 -170 250 -234 250 -258 0
-24 -103 -130 -247 -254 -34 -29 -73 -71 -87 -92 -27 -43 -63 -57 -100 -40
-31 14 -44 48 -32 84 12 32 35 47 74 47 21 0 49 21 119 88 50 48 108 101 128
118 20 17 37 36 37 42 0 10 -226 218 -256 235 -13 7 -73 -48 -303 -277 l-286
-286 -340 0 -340 -1 -40 -24 c-55 -34 -99 -33 -136 4 -38 39 -40 97 -5 138 20
23 32 28 70 28 37 0 51 -6 78 -32 l34 -33 314 1 315 0 270 266 c288 283 334
323 372 323 16 0 53 -26 111 -77z m-13787 -209 c12 -15 46 -16 331 -12 l317 5
68 -63 c37 -35 72 -63 77 -64 17 0 216 -204 216 -221 0 -9 -7 -19 -15 -22 -7
-3 -168 -6 -357 -7 -189 -1 -372 -5 -408 -10 -36 -6 -84 -13 -107 -16 -36 -6
-45 -3 -67 19 -33 34 -33 52 3 88 32 32 67 37 97 14 16 -12 73 -14 336 -15
183 0 319 4 323 9 3 5 -39 55 -92 112 l-98 102 -284 -6 c-283 -6 -284 -6 -320
-32 -68 -46 -131 -22 -131 52 0 66 74 111 111 67z m2309 -304 c23 -23 26 -58
7 -85 -13 -17 -38 -18 -484 -16 -416 2 -471 1 -482 -13 -18 -21 -79 -20 -103
1 -24 22 -24 77 2 103 24 24 54 25 94 5 24 -13 94 -15 438 -15 395 0 411 1
435 20 14 11 36 20 49 20 13 0 33 -9 44 -20z m10084 -259 l32 -31 186 0 c153
0 188 -3 198 -15 7 -8 20 -15 28 -15 19 0 82 -59 82 -76 0 -7 53 -68 118 -136
65 -67 123 -131 128 -140 9 -16 187 -202 231 -241 19 -16 24 -17 64 -3 35 12
95 16 286 16 l243 0 25 40 c29 45 70 70 117 70 39 0 90 -29 113 -64 34 -51 13
-147 -38 -181 -58 -38 -141 -26 -179 26 l-22 29 -323 0 -324 0 -112 116 c-62
64 -114 121 -116 128 -2 6 -55 63 -117 128 -63 64 -114 121 -114 128 0 6 -21
33 -46 60 l-47 50 -188 0 -188 0 -21 -27 c-28 -37 -58 -52 -98 -53 -47 0 -87
24 -106 65 -56 118 94 217 188 126z m-12200 -27 l39 -27 529 -5 529 -5 21 -31
c12 -17 59 -70 105 -117 46 -48 83 -90 83 -95 0 -5 14 -24 32 -43 l32 -34 129
6 c71 3 134 10 140 16 7 7 94 11 250 11 224 0 240 1 264 20 31 24 70 26 101 4
17 -12 22 -25 22 -58 0 -57 -34 -92 -81 -82 -18 3 -41 13 -50 22 -19 17 -125
16 -609 -4 -118 -5 -220 -8 -225 -6 -6 3 -25 26 -43 52 -18 27 -55 70 -82 97
-28 27 -50 54 -50 60 0 12 -75 95 -87 96 -4 0 -21 2 -38 3 -16 2 -208 7 -425
11 -217 4 -430 10 -473 14 -71 6 -82 5 -115 -16 -46 -28 -62 -28 -90 -3 -33
31 -30 92 4 119 34 27 41 26 88 -5z m1636 11 c10 -12 48 -15 220 -15 172 0
210 3 220 15 7 8 29 15 50 15 48 0 75 -28 75 -80 0 -77 -61 -102 -131 -55 -36
24 -41 25 -224 25 -147 0 -194 -3 -216 -15 -40 -21 -74 -19 -101 7 -29 27 -29
57 -2 92 16 20 29 26 59 26 21 0 43 -6 50 -15z m12788 -18 c15 -14 22 -32 22
-57 0 -81 -93 -111 -149 -49 -28 30 -30 31 -97 24 -38 -4 -262 -9 -498 -11
l-428 -5 -33 -24 c-41 -32 -87 -33 -115 -3 -38 41 -34 92 9 125 24 18 73 15
101 -7 24 -19 44 -20 531 -20 500 0 505 0 528 21 25 24 68 38 91 31 8 -3 25
-14 38 -25z m-2171 -259 c13 -12 23 -33 23 -48 0 -27 56 -89 132 -144 20 -15
140 -130 267 -255 l231 -228 0 -262 0 -262 29 -27 c53 -50 64 -97 36 -152 -19
-37 -62 -60 -111 -60 -28 0 -44 8 -70 34 -29 29 -34 41 -34 83 0 44 4 53 40
88 l40 39 0 244 0 244 -247 245 c-239 236 -374 353 -406 353 -21 0 -47 38 -47
69 0 57 72 82 117 39z m2122 -15 c18 -21 22 -34 17 -62 -8 -51 -40 -74 -91
-66 -22 4 -210 9 -418 11 l-379 5 -50 -26 c-79 -41 -138 -15 -138 61 0 42 27
73 71 80 28 5 41 1 66 -20 l31 -26 346 0 c364 0 380 2 416 45 35 42 91 40 129
-2z m-14356 -11 l28 -26 377 -4 c370 -4 378 -4 412 17 39 24 71 27 103 10 30
-16 37 -28 37 -71 0 -67 -76 -101 -130 -58 -24 18 -43 20 -339 20 -191 0 -348
5 -398 12 -79 11 -84 11 -112 -10 -38 -28 -52 -28 -85 3 -43 40 -34 105 19
133 26 14 53 6 88 -26z m11938 -231 c23 -24 29 -38 29 -73 0 -42 3 -45 143
-181 78 -77 160 -153 182 -170 22 -18 100 -91 173 -163 l132 -131 -2 -339 -3
-339 -30 3 c-23 2 -53 26 -130 106 -55 57 -111 117 -125 133 -14 16 -87 94
-163 173 -135 141 -139 144 -178 142 -54 -4 -99 39 -99 93 0 114 176 129 182
15 3 -63 3 -64 267 -338 213 -223 228 -231 223 -122 -1 36 -5 151 -8 255 l-5
190 -122 124 c-67 68 -162 157 -212 199 -49 41 -111 96 -136 121 -128 126
-137 134 -166 133 -43 -1 -77 16 -96 47 -26 45 -21 79 17 117 44 44 86 46 127
5z m-12017 -106 c28 -21 203 -21 253 0 26 11 74 15 180 15 143 0 144 0 169
-27 13 -14 34 -43 46 -62 13 -20 26 -40 31 -46 8 -9 18 -26 72 -110 11 -18 38
-53 60 -79 l40 -47 115 6 c63 3 177 8 254 11 126 5 142 7 175 30 44 29 70 30
105 3 35 -28 35 -70 -1 -99 -22 -17 -34 -20 -58 -14 -43 11 -327 6 -360 -6
-14 -5 -81 -10 -148 -10 l-121 0 -33 32 c-18 18 -33 36 -33 41 0 6 -17 30 -37
55 -21 25 -40 51 -43 58 -3 7 -27 36 -55 65 -27 28 -57 66 -66 83 -19 36 -26
37 -224 18 -66 -7 -156 -12 -200 -12 -50 -1 -89 -6 -105 -15 -36 -21 -70 -18
-97 7 -32 30 -29 61 8 92 35 30 46 31 73 11z m1796 0 c8 -9 10 -34 7 -72 -13
-143 -29 -474 -23 -488 5 -13 54 -15 363 -15 339 0 359 1 399 20 62 31 105 16
118 -40 8 -34 -13 -71 -47 -83 -21 -7 -37 -4 -71 13 -42 20 -54 20 -247 15
-112 -3 -284 -10 -381 -17 -140 -8 -181 -8 -193 2 -12 10 -15 60 -17 304 l-3
291 -70 3 c-38 2 -106 -1 -150 -8 -44 -6 -163 -15 -265 -19 -161 -7 -192 -11
-238 -31 l-53 -23 -24 23 c-17 16 -25 34 -25 58 0 66 55 93 107 52 26 -21 68
-27 77 -11 3 4 97 11 208 13 112 3 214 10 228 16 14 6 84 11 156 11 104 1 134
-2 144 -14z m-1605 -191 c14 -9 27 -30 31 -49 4 -24 31 -59 91 -122 46 -48 91
-101 100 -118 9 -16 41 -56 71 -87 l55 -58 235 0 c204 0 238 2 263 17 29 17
31 17 67 -2 l37 -20 7 -130 c3 -71 9 -206 13 -300 5 -118 11 -177 21 -192 8
-12 14 -39 14 -60 0 -85 -97 -116 -135 -42 -21 40 -19 61 11 105 l26 38 -12
130 c-6 72 -14 186 -16 254 l-5 122 -290 0 c-268 0 -290 1 -306 18 -96 101
-123 133 -145 167 -14 22 -40 54 -58 70 -18 17 -45 49 -62 73 -20 29 -39 45
-59 49 -35 7 -69 46 -69 80 0 28 44 73 72 73 10 0 30 -7 43 -16z m14146 -103
c47 -47 33 -121 -26 -141 -42 -14 -76 -1 -119 45 l-33 35 -310 0 -310 0 -111
-114 c-70 -72 -112 -122 -112 -135 0 -21 3 -21 329 -21 l329 0 39 46 c33 40
44 46 77 46 50 0 88 -29 100 -74 20 -78 -62 -142 -137 -108 -26 12 -110 15
-447 16 l-415 0 -3 30 c-2 24 8 41 62 99 36 39 65 75 66 80 0 6 44 55 98 108
l99 98 344 0 c189 0 353 4 364 9 42 18 85 11 116 -19z m-11810 -12 c21 -30 21
-33 6 -65 -20 -41 -54 -52 -98 -30 -48 24 -365 23 -406 -1 -40 -22 -77 -12
-93 28 -11 27 -11 33 7 57 21 29 68 41 86 23 7 -7 78 -11 198 -11 154 0 189 3
199 15 7 8 27 15 46 15 25 0 38 -7 55 -31z m-1118 -528 c17 -7 28 -21 32 -42
10 -44 39 -94 86 -148 21 -24 39 -49 39 -55 1 -6 19 -29 40 -51 22 -22 40 -44
40 -50 1 -14 87 -105 99 -105 6 0 11 8 11 19 0 10 7 24 15 31 8 7 15 20 16 29
0 9 9 30 19 46 21 34 56 96 77 137 8 15 18 30 24 33 5 4 9 13 9 21 0 8 9 23
20 34 19 19 36 19 465 20 334 1 450 -1 461 -10 22 -19 18 -76 -8 -94 -30 -21
-50 -20 -81 4 -24 19 -40 20 -400 20 -402 0 -389 2 -410 -50 -4 -8 -20 -37
-37 -65 -16 -27 -33 -57 -36 -65 -10 -25 -34 -74 -46 -95 -17 -31 -26 -47 -43
-82 -22 -41 -51 -67 -69 -60 -9 4 -35 32 -58 63 -24 31 -58 74 -75 94 -18 21
-33 42 -33 47 0 6 -17 30 -38 54 -20 24 -56 69 -79 100 -22 30 -59 73 -82 94
-49 46 -56 93 -19 119 26 19 29 19 61 7z m10625 -46 c34 -17 48 -56 37 -105
-4 -19 -17 -35 -37 -45 -43 -21 -61 -19 -89 11 -23 25 -26 25 -134 21 -141 -6
-204 -17 -242 -45 -39 -28 -73 -28 -107 -1 -38 30 -36 78 5 118 46 47 74 50
113 12 30 -29 36 -31 106 -31 46 1 85 6 100 15 14 8 50 14 81 15 46 0 60 4 79
25 27 29 45 31 88 10z m-11728 -40 c38 -28 72 -32 90 -10 10 13 50 15 238 15
218 0 227 -1 249 -22 13 -12 23 -26 23 -31 0 -5 -18 -29 -40 -54 -22 -25 -40
-51 -40 -57 0 -6 -12 -22 -27 -36 -65 -62 -203 -258 -203 -290 0 -44 -26 -70
-69 -70 -30 0 -42 6 -55 25 -32 49 -16 94 43 125 22 11 48 34 60 53 11 18 29
42 41 52 11 10 20 25 20 35 0 9 18 34 40 55 22 21 40 43 40 49 0 5 7 17 16 27
31 35 9 39 -205 39 -167 0 -211 -3 -227 -15 -43 -32 -95 -11 -109 46 -5 19 0
34 20 57 32 39 51 40 95 7z m12906 -260 c31 -24 37 -25 266 -31 227 -7 234 -6
275 15 54 29 103 21 126 -19 23 -38 21 -53 -9 -89 -34 -41 -89 -43 -124 -6
l-23 25 -241 0 -240 0 -26 -25 c-15 -14 -42 -28 -61 -31 -30 -5 -39 -1 -67 27
-88 90 23 211 124 134z m-10825 -41 c12 -11 68 -14 269 -14 222 0 256 2 272
17 22 20 71 21 92 3 9 -7 16 -27 16 -46 0 -62 -53 -83 -105 -42 -27 21 -32 21
-274 15 -212 -5 -252 -8 -278 -24 -25 -14 -38 -15 -60 -8 -24 9 -28 17 -31 52
-2 33 1 44 20 57 24 17 52 13 79 -10z m9681 -160 c4 -93 12 -189 18 -213 6
-24 10 -89 9 -144 l-2 -101 126 -123 c122 -120 126 -123 169 -123 48 0 70 -16
83 -58 12 -41 -4 -81 -45 -109 l-39 -25 -36 22 c-38 23 -60 63 -50 88 4 10
-44 65 -140 161 l-145 147 -2 284 -3 285 -285 3 -285 2 -135 -135 c-132 -132
-135 -136 -135 -179 -1 -61 -25 -86 -81 -86 -36 0 -46 5 -64 30 -20 28 -20 33
-7 53 8 12 25 32 38 44 13 12 94 89 179 171 119 115 163 151 190 157 28 6 588
23 625 19 6 0 13 -70 17 -170z m267 -34 c60 -30 100 -107 70 -137 -8 -8 -8
-17 -1 -29 6 -11 172 -180 369 -376 286 -286 364 -358 384 -358 42 0 79 -36
79 -75 0 -34 -14 -54 -56 -82 -22 -14 -26 -14 -48 0 -42 28 -56 48 -56 80 0
29 -38 70 -362 394 l-363 363 -54 0 c-48 0 -59 4 -88 32 -27 26 -33 39 -33 74
0 62 18 94 65 115 51 23 49 23 94 -1z m-573 -57 c10 -14 13 -87 14 -334 l0
-315 -33 -32 -32 -31 -310 -1 -309 -1 -120 120 c-106 105 -126 121 -154 121
-60 0 -99 64 -76 125 9 22 62 48 88 41 35 -9 66 -44 66 -76 0 -23 21 -51 100
-136 114 -122 151 -149 189 -138 14 4 134 10 266 13 l240 6 3 248 c1 167 -1
247 -8 247 -6 0 -14 -8 -17 -17 -4 -10 -40 -52 -80 -93 -84 -86 -106 -122
-104 -166 2 -49 -32 -84 -82 -84 -52 0 -87 30 -87 75 0 47 33 83 77 87 31 2
43 11 71 48 19 24 68 80 108 124 41 43 74 84 74 90 0 13 81 96 93 96 6 0 16
-8 23 -17z m2142 -15 c32 -30 29 -77 -6 -111 -35 -34 -69 -34 -116 -2 l-37 25
-334 0 c-290 0 -336 -2 -349 -16 -9 -8 -16 -18 -16 -22 0 -3 50 -56 110 -117
61 -62 110 -117 110 -123 0 -6 10 -14 23 -17 35 -11 77 -56 77 -83 0 -13 -9
-37 -21 -53 -27 -39 -84 -41 -119 -4 -20 21 -22 31 -16 72 l6 47 -112 116
c-108 111 -188 204 -188 220 0 30 100 38 568 46 271 5 273 5 309 30 42 28 74
26 111 -8z m-12245 -10 c24 -28 22 -70 -5 -95 -36 -32 -56 -34 -98 -13 -37 19
-59 20 -360 20 -278 0 -324 -2 -345 -16 -14 -9 -25 -21 -25 -26 0 -5 -11 -24
-25 -42 -14 -18 -25 -36 -25 -40 0 -5 -18 -28 -40 -53 -22 -25 -40 -51 -40
-58 0 -7 -7 -18 -15 -25 -8 -7 -15 -23 -15 -35 0 -24 -42 -65 -67 -65 -29 0
-61 31 -68 67 -5 29 -2 40 16 59 12 13 30 24 40 24 25 0 49 11 49 22 0 6 12
27 28 47 15 20 32 43 37 52 21 34 71 102 99 135 l28 34 348 0 c290 0 350 2
360 14 24 30 94 27 123 -6z m278 -14 c15 -18 409 -20 587 -2 l123 12 187 -186
c103 -102 202 -195 220 -207 27 -19 32 -29 32 -61 0 -46 -26 -70 -76 -70 -37
0 -74 38 -74 76 0 30 -92 143 -219 268 l-100 99 -138 -11 c-77 -7 -227 -12
-334 -12 -183 0 -197 -1 -214 -20 -52 -57 -131 21 -96 96 18 41 75 51 102 18z
m-633 -207 c12 -11 22 -31 22 -44 0 -32 -43 -73 -76 -73 -20 0 -49 -21 -113
-83 -47 -46 -107 -100 -133 -121 -33 -25 -48 -45 -48 -61 0 -13 -12 -37 -26
-54 -21 -26 -33 -31 -68 -31 -86 0 -116 81 -47 127 19 13 43 23 54 23 33 0
297 244 297 274 0 29 10 42 45 60 34 18 60 13 93 -17z m1062 -127 c0 -11 -5
-22 -11 -25 -6 -4 -13 -15 -17 -25 -4 -10 -67 -79 -139 -153 -73 -74 -133
-142 -133 -150 0 -25 -59 -69 -84 -62 -27 8 -66 51 -66 73 0 21 49 72 71 72
17 0 224 199 215 207 -9 9 -449 2 -467 -8 -28 -14 -531 -547 -554 -585 -25
-43 -62 -57 -98 -38 -34 18 -50 48 -41 77 11 38 35 57 71 57 28 0 41 8 71 43
20 23 147 153 281 289 l245 248 315 2 c174 2 322 1 329 -1 6 -2 12 -11 12 -21z
m1149 5 c65 -33 51 -135 -18 -135 -20 0 -54 -28 -146 -120 l-120 -120 -135 0
c-93 0 -140 4 -148 12 -8 8 -65 14 -170 16 l-158 4 -104 -111 c-56 -61 -111
-123 -120 -138 -10 -16 -93 -102 -184 -193 -125 -124 -166 -171 -166 -189 0
-38 -37 -71 -79 -71 -42 0 -81 33 -81 67 0 32 43 73 76 73 39 0 290 250 555
552 23 27 55 55 72 63 37 18 217 21 234 4 7 -7 79 -13 193 -17 l182 -5 104
104 c86 86 104 109 104 134 0 35 6 45 40 68 30 21 34 21 69 2z m7063 -243 c32
-31 33 -75 3 -110 -26 -32 -27 -34 -21 -135 4 -56 9 -178 13 -272 l7 -170 143
-139 142 -139 118 16 c73 11 183 17 289 17 156 0 172 -2 188 -19 15 -17 16
-22 4 -39 -7 -10 -144 -148 -305 -306 l-291 -287 -6 -127 c-3 -70 -8 -245 -12
-389 l-6 -263 26 -31 c34 -40 34 -88 1 -127 -60 -72 -165 -32 -165 63 0 26 9
44 35 72 19 20 36 42 37 48 0 5 3 24 6 40 3 17 7 190 9 386 l4 355 197 195
c108 107 228 223 265 257 38 35 66 69 64 75 -3 9 -72 13 -258 15 l-255 2 -152
153 -152 152 -3 276 -2 276 -32 32 c-43 43 -44 82 -3 123 26 25 36 29 63 24
18 -4 40 -14 49 -24z m-6722 -63 c10 -23 10 -35 0 -59 -7 -16 -16 -30 -21 -30
-5 0 -24 -13 -42 -30 -19 -16 -39 -30 -43 -30 -5 0 -45 -34 -89 -74 l-80 -74
3 -453 c1 -250 5 -527 8 -616 4 -89 4 -173 0 -187 -3 -14 -20 -32 -37 -41 -16
-9 -95 -80 -175 -157 -79 -78 -159 -152 -177 -165 -18 -13 -91 -82 -164 -153
-72 -72 -135 -130 -140 -130 -16 0 -50 -43 -56 -71 -7 -27 -50 -54 -70 -43
-31 18 -57 50 -57 71 0 25 24 44 84 64 27 10 84 57 184 154 79 77 152 143 161
147 9 3 75 66 146 138 72 72 156 149 188 171 l57 40 0 117 c0 64 -4 232 -10
372 -5 140 -11 369 -13 509 l-4 255 61 63 c34 35 65 63 71 63 6 0 27 14 48 31
33 27 37 35 35 74 0 25 5 51 13 61 34 42 99 33 119 -17z m6409 -183 c56 -30
66 -95 21 -151 l-30 -38 0 -268 0 -269 116 -115 c112 -111 118 -115 160 -115
34 0 47 -5 63 -26 49 -62 10 -148 -66 -148 -45 0 -98 53 -89 89 6 25 6 25
-150 187 l-104 107 0 274 0 275 -35 42 c-37 45 -43 79 -21 119 26 47 84 63
135 37z m563 -12 c42 -20 68 -64 68 -114 0 -35 5 -42 43 -69 23 -16 80 -68
127 -115 l85 -86 304 0 305 0 142 -141 c91 -90 149 -140 161 -139 57 6 103
-29 103 -79 0 -43 -44 -91 -83 -91 -43 0 -97 53 -97 95 0 26 -20 50 -129 159
l-128 128 -301 -3 -302 -3 -112 110 c-149 145 -160 153 -223 147 -40 -4 -55
-1 -76 16 -53 42 -46 138 14 178 39 26 56 28 99 7z m1843 -28 c35 -18 65 -80
58 -121 -4 -28 9 -43 189 -222 169 -168 198 -193 225 -193 17 0 38 -3 47 -6
22 -8 2 -49 -53 -107 l-46 -47 -17 22 c-10 13 -18 39 -18 59 0 32 -14 49 -184
217 -101 100 -192 182 -202 183 -10 1 -33 0 -51 -1 -39 -2 -85 21 -107 54 -32
49 -13 135 36 163 31 17 89 16 123 -1z m-10887 -22 c18 -12 22 -24 20 -52 -2
-31 -9 -40 -38 -54 -46 -23 -266 -243 -291 -290 -23 -45 -58 -58 -94 -34 -42
28 -25 87 27 97 10 2 74 60 143 128 94 94 125 130 125 149 0 32 36 72 65 72
11 0 31 -7 43 -16z m1227 2 c36 -26 11 -116 -31 -116 -8 0 -132 -117 -276
-260 -145 -144 -272 -269 -283 -278 -53 -47 -51 -47 -269 -54 -253 -8 -291
-13 -332 -44 -50 -39 -97 -27 -117 29 -16 43 47 100 84 76 19 -12 383 -11 439
2 25 5 64 12 87 16 40 5 61 24 317 278 231 228 274 276 269 294 -13 50 67 90
112 57z m1167 -13 c12 -11 18 -30 18 -59 0 -34 -5 -47 -26 -63 -15 -12 -37
-21 -50 -21 -17 0 -59 -35 -144 -119 -66 -65 -120 -122 -119 -127 0 -5 21 -25
46 -44 24 -19 75 -63 112 -97 37 -35 73 -63 79 -63 6 0 43 -29 81 -65 37 -36
73 -65 79 -65 6 0 37 -25 69 -56 89 -87 113 -102 163 -106 40 -3 47 -7 64 -39
31 -57 -2 -129 -58 -129 -32 0 -76 46 -76 81 0 24 -38 69 -59 69 -3 0 -37 29
-75 65 -38 36 -74 65 -80 65 -6 0 -41 29 -76 65 -35 36 -71 65 -80 65 -9 0
-47 32 -85 70 -38 39 -74 70 -80 70 -22 1 -105 91 -105 115 0 17 38 62 131
158 118 121 132 138 134 172 4 74 83 107 137 58z m7200 -8 l37 -25 334 0 334
0 302 -305 c207 -209 309 -305 324 -305 30 0 77 -48 77 -80 0 -57 -50 -95
-111 -85 -47 8 -69 42 -69 106 0 42 -2 44 -287 331 l-288 289 -50 -6 c-27 -3
-164 -9 -303 -11 l-254 -5 -40 -30 c-49 -35 -60 -36 -104 -8 -30 18 -34 26
-34 64 0 36 5 48 31 69 38 32 55 33 101 1z m-6898 -296 c16 -13 26 -30 26 -47
0 -20 35 -61 160 -186 88 -89 187 -183 221 -211 34 -27 95 -82 136 -120 l74
-70 2 -313 c2 -242 5 -315 15 -321 7 -4 15 -24 19 -44 5 -30 1 -40 -22 -61
-37 -34 -70 -33 -106 3 -36 36 -37 60 -4 99 l25 30 0 288 0 289 -103 97 c-57
53 -121 110 -142 127 -22 16 -105 95 -185 175 -80 80 -151 146 -158 146 -24 0
-71 30 -77 49 -22 70 59 117 119 70z m-1214 -36 c0 -10 7 -27 15 -37 12 -16
15 -66 15 -277 0 -221 2 -261 17 -286 22 -39 11 -78 -27 -98 -27 -14 -33 -14
-59 -1 -43 23 -55 72 -26 110 12 16 15 63 15 248 0 125 -3 228 -7 228 -4 0
-111 -102 -239 -227 -127 -126 -323 -317 -436 -425 -189 -182 -206 -201 -211
-238 -7 -54 -22 -70 -67 -70 -29 0 -41 6 -54 25 -31 47 -17 89 41 118 17 9 62
45 99 79 184 170 422 400 644 622 135 135 253 246 262 246 10 0 18 -8 18 -17z
m6409 -44 c44 -44 42 -82 -7 -129 -27 -25 -41 -48 -45 -74 -6 -37 -5 -38 156
-201 89 -90 213 -218 275 -284 106 -113 116 -121 151 -121 50 0 88 -30 97 -77
19 -100 -98 -160 -167 -87 -18 20 -24 37 -24 80 l-1 55 -272 272 -272 273 0
70 c0 61 -3 73 -24 93 -45 42 -44 121 3 146 46 25 96 19 130 -16z m-4277 -316
c24 -28 26 -46 12 -75 -12 -22 -14 -124 -12 -555 l3 -528 205 2 c113 0 237 5
275 10 l70 8 3 240 c1 132 0 250 -3 262 -3 12 -13 24 -24 28 -19 6 -41 45 -41
74 0 9 9 27 21 40 17 18 30 21 67 19 39 -3 49 -7 64 -34 18 -30 18 -33 -1 -75
-17 -39 -19 -72 -19 -309 0 -162 -4 -276 -11 -292 l-11 -28 -142 0 c-79 0
-161 -6 -183 -12 -22 -6 -97 -13 -166 -15 -107 -3 -129 -2 -143 12 -14 14 -16
51 -18 273 -4 533 -5 630 -12 736 -4 70 -12 116 -21 129 -32 46 -7 107 45 107
15 0 34 -8 42 -17z m3387 -28 c37 -43 38 -49 6 -91 -27 -35 -31 -64 -15 -95
10 -18 24 -19 288 -19 l278 0 95 -97 c52 -54 103 -111 114 -128 10 -16 158
-170 328 -342 287 -289 313 -313 344 -313 69 0 121 -92 92 -161 -14 -35 -62
-69 -97 -69 -63 0 -112 54 -112 124 0 24 -6 51 -12 58 -7 7 -28 31 -47 53 -19
22 -125 135 -236 250 -111 116 -229 242 -263 280 -33 39 -104 114 -159 167
l-98 98 -295 2 -295 3 -3 71 c-3 64 -6 74 -32 99 -21 20 -30 38 -30 59 0 39 8
51 45 70 46 24 70 20 104 -19z m-3097 -33 c26 -22 32 -66 13 -101 -14 -27 -15
-76 -11 -388 2 -197 5 -369 6 -383 2 -27 -31 -60 -62 -60 -24 0 -68 43 -68 68
0 11 13 36 29 56 l29 36 0 310 0 311 -24 28 c-67 80 11 189 88 123z m2776 -2
c43 -26 76 -98 67 -143 -10 -46 -39 -89 -74 -110 l-31 -18 0 -95 0 -94 283 0
c240 0 286 -2 305 -16 20 -14 22 -23 22 -118 0 -57 5 -182 10 -277 9 -164 25
-701 37 -1279 5 -230 7 -258 25 -287 26 -43 11 -77 -30 -69 -16 4 -39 0 -56
-9 -15 -8 -35 -15 -42 -15 -20 0 -17 43 6 89 20 37 20 46 10 182 -5 79 -10
311 -10 515 0 205 -5 450 -10 545 -12 212 -18 374 -19 536 l-1 123 -302 2
-303 3 -5 133 c-4 119 -7 135 -24 144 -35 20 -66 60 -77 102 -14 53 12 121 60
153 44 30 113 31 159 3z m-4554 -137 c42 -42 76 -80 76 -85 0 -5 43 -53 95
-107 52 -54 95 -103 95 -110 0 -6 45 -58 100 -116 55 -57 100 -108 100 -112 0
-5 24 -34 54 -65 36 -39 66 -60 93 -67 49 -13 81 -67 62 -104 -21 -41 -42 -57
-74 -57 -44 0 -75 32 -75 78 0 31 -9 47 -50 92 -27 30 -50 59 -50 65 0 6 -43
53 -95 105 -52 52 -95 101 -95 108 0 7 -40 55 -90 106 -49 51 -90 97 -90 102
-1 18 -69 86 -79 79 -18 -10 -14 -470 4 -520 18 -51 18 -65 0 -101 -8 -16
-109 -123 -225 -239 -167 -167 -210 -215 -210 -236 0 -29 -30 -73 -61 -89 -33
-18 -87 15 -99 60 -18 68 19 120 84 120 40 0 46 5 247 208 l205 207 -9 105
c-10 122 -20 618 -13 637 9 23 24 14 100 -64z m8525 12 c38 -43 39 -68 5 -112
-32 -42 -81 -46 -126 -8 l-30 25 -245 0 -246 0 -141 -137 c-78 -76 -142 -145
-144 -154 -2 -9 35 -53 85 -102 74 -73 93 -87 120 -87 43 0 82 -35 90 -82 5
-33 2 -41 -30 -73 -43 -43 -91 -48 -133 -12 -23 20 -27 31 -27 79 l0 56 -103
103 c-57 57 -104 110 -104 118 0 22 326 337 357 346 16 5 139 11 274 14 l245
6 33 28 c46 38 81 36 120 -8z m-4301 -11 c30 -21 30 -79 0 -111 -12 -13 -25
-23 -30 -23 -5 0 -146 -138 -314 -307 -261 -265 -307 -306 -322 -297 -15 10
-17 33 -20 200 -2 126 1 207 9 243 13 53 12 54 -14 73 -51 37 -28 128 32 128
63 0 90 -60 56 -120 -18 -31 -22 -365 -4 -375 6 -4 118 101 255 239 238 239
245 247 239 279 -13 66 57 111 113 71z m-1246 -111 c25 -28 29 -57 13 -79 -8
-11 -14 -42 -15 -75 0 -31 -7 -76 -15 -99 -16 -46 -22 -280 -7 -280 5 0 40 30
79 68 39 37 103 97 142 133 l71 67 0 69 c0 45 -5 76 -15 89 -18 23 -19 76 -3
92 7 7 29 12 50 12 49 0 68 -32 50 -84 -7 -18 -12 -71 -12 -117 l0 -85 -190
-188 c-174 -173 -191 -187 -221 -184 l-32 3 1 110 c1 61 6 126 12 145 16 56
12 301 -5 324 -27 36 8 96 55 96 15 0 34 -8 42 -17z m-3824 -149 c49 -34 17
-114 -46 -114 -13 0 -44 -17 -69 -37 -95 -78 -255 -239 -268 -270 -19 -44 -57
-54 -91 -22 -13 12 -24 32 -24 44 0 32 28 65 56 65 14 0 35 10 47 23 12 12 74
68 138 124 75 65 122 115 134 140 9 21 24 44 33 51 22 17 63 15 90 -4z m1731
-9 c39 -33 46 -57 27 -94 -14 -25 -16 -79 -16 -340 l0 -311 -302 -2 -303 -3
-3 -233 c-2 -195 0 -237 13 -263 19 -36 13 -61 -22 -89 -55 -43 -123 -9 -123
61 0 31 6 43 30 61 l30 22 0 257 c0 142 3 259 8 261 4 2 138 1 297 -2 184 -3
297 -1 309 5 17 9 18 22 12 210 -9 283 -13 314 -42 325 -28 11 -57 64 -49 89
9 30 56 71 81 71 12 0 36 -11 53 -25z m1795 -101 c3 -9 6 -160 6 -336 l0 -321
-213 -216 c-118 -119 -286 -292 -374 -386 -188 -199 -336 -345 -350 -345 -6 0
-85 77 -177 170 -114 118 -166 178 -166 193 0 15 53 75 174 196 105 105 172
179 169 188 -10 26 8 63 37 78 36 19 70 12 100 -20 32 -34 21 -68 -35 -100
-24 -15 -47 -35 -50 -45 -3 -10 -12 -20 -20 -22 -7 -2 -70 -58 -140 -126 -90
-87 -125 -128 -123 -142 4 -23 215 -240 234 -240 8 0 203 190 434 423 l420
422 0 258 c0 148 -4 257 -9 257 -15 0 -155 -148 -177 -188 -27 -48 -65 -63
-95 -36 -36 32 -41 51 -24 83 15 30 47 47 65 36 6 -4 65 48 133 114 93 92 128
121 148 121 15 0 29 -7 33 -16z m4006 -110 c40 -34 60 -74 60 -120 0 -45 -33
-106 -70 -127 -17 -10 -30 -28 -34 -48 -3 -17 -6 -139 -6 -271 l0 -240 34 -32
c44 -41 56 -66 56 -119 0 -133 -184 -175 -246 -56 -28 55 -15 110 40 169 l46
49 0 253 c0 139 -4 258 -8 263 -4 6 -24 23 -46 39 -65 49 -82 116 -46 187 28
53 72 79 137 79 41 0 58 -5 83 -26z m582 -53 c42 -37 45 -90 8 -141 -24 -34
-25 -41 -25 -186 l0 -151 32 -36 c38 -43 48 -74 40 -125 -9 -55 -54 -94 -114
-99 -59 -5 -102 19 -126 70 -30 63 -18 110 44 166 l40 37 -9 150 c-7 133 -10
154 -30 179 -24 30 -29 83 -12 115 14 25 58 49 92 50 17 0 41 -12 60 -29z
m-2410 -58 c36 -35 37 -80 3 -121 l-25 -30 0 -633 c0 -614 1 -635 20 -659 50
-63 -7 -154 -84 -134 -32 8 -66 48 -66 79 0 13 15 41 34 63 l33 40 -4 144 c-1
79 -5 359 -8 624 l-6 481 -24 23 c-36 34 -35 100 1 129 38 30 91 28 126 -6z
m-626 2 c34 -23 48 -68 34 -109 -6 -19 -18 -40 -26 -46 -11 -10 -14 -52 -14
-231 l0 -219 25 0 c14 0 25 5 25 11 0 7 35 49 79 94 72 75 78 85 78 124 0 69
56 112 119 91 41 -14 64 -49 64 -98 0 -50 -41 -92 -91 -92 -42 0 -47 -4 -94
-60 -65 -79 -199 -221 -218 -232 -15 -7 -24 -5 -43 13 l-24 22 0 274 0 274
-25 33 c-53 69 -19 166 57 166 19 0 43 -7 54 -15z m1196 -22 c10 -9 18 -30 18
-48 0 -27 18 -49 138 -166 75 -75 162 -154 192 -176 60 -44 217 -204 238 -240
9 -17 12 -115 12 -383 0 -355 0 -362 22 -400 l22 -38 -24 -21 c-14 -11 -35
-20 -48 -21 -12 0 -34 -7 -47 -16 -16 -10 -34 -14 -50 -10 -22 6 -25 12 -25
51 0 45 6 55 58 97 22 18 22 22 22 350 l0 331 -62 60 c-35 33 -128 124 -208
201 -244 237 -330 316 -346 316 -18 0 -37 47 -30 76 13 52 79 72 118 37z
m-1432 -253 c39 -39 24 -85 -36 -110 -24 -11 -87 -60 -142 -112 -55 -51 -136
-124 -180 -163 l-80 -70 -1 -130 c0 -81 5 -152 14 -190 11 -45 14 -132 15
-348 l0 -287 26 -39 c21 -32 23 -43 15 -59 -20 -37 -42 -52 -77 -52 -63 0 -95
65 -58 118 14 20 15 55 10 275 -3 139 -9 365 -12 502 l-5 250 32 39 c18 21 51
52 73 68 23 16 85 72 138 123 54 52 111 101 127 109 15 8 34 29 41 46 21 52
65 65 100 30z m-697 -121 c16 -28 17 -82 17 -718 0 -589 2 -690 15 -707 21
-27 19 -78 -4 -98 -29 -27 -85 -25 -116 4 -33 31 -32 65 5 99 l30 27 -2 639
c-3 615 -4 640 -22 643 -20 4 -94 -63 -126 -113 -10 -17 -132 -145 -269 -285
-138 -140 -251 -259 -251 -264 0 -6 -104 -115 -232 -243 -265 -265 -265 -265
-328 -193 -30 35 -41 40 -77 40 -54 0 -83 26 -83 75 0 56 51 89 105 69 9 -4
27 -27 40 -53 13 -25 36 -58 52 -73 l29 -28 233 234 c128 128 241 245 250 260
9 14 123 133 252 263 129 131 253 263 276 293 22 30 63 76 89 101 72 68 91 73
117 28z m2127 -209 c24 -24 26 -72 5 -90 -13 -11 -15 -60 -15 -327 0 -300 1
-316 20 -340 26 -33 25 -63 -1 -97 -24 -30 -58 -34 -94 -10 -35 23 -35 81 1
115 25 23 26 27 20 109 -3 47 -9 182 -12 300 -5 167 -9 219 -20 231 -8 9 -17
32 -21 52 -4 27 -1 39 16 56 27 27 75 27 101 1z m-4259 -86 c20 -21 21 -29 19
-312 -1 -244 2 -296 15 -321 22 -44 19 -77 -11 -100 -32 -25 -71 -27 -102 -5
-32 22 -30 83 3 114 l25 23 0 274 0 273 -107 0 c-60 0 -126 5 -148 9 -66 15
-189 22 -204 12 -12 -7 -10 -17 12 -53 38 -63 150 -172 183 -178 18 -3 35 -17
47 -37 17 -29 17 -34 3 -61 -34 -66 -126 -51 -126 21 0 30 -15 49 -202 251
-64 68 -78 93 -61 110 4 4 148 6 320 4 303 -3 313 -4 334 -24z m3357 -126 c9
-9 12 -105 12 -372 0 -343 1 -363 20 -394 26 -42 25 -82 -1 -116 -44 -55 -142
-19 -142 53 0 17 12 47 26 69 27 38 27 39 27 228 0 203 -8 324 -21 324 -14 0
-59 -47 -59 -62 0 -8 -13 -27 -30 -43 -16 -16 -30 -35 -30 -42 0 -8 -11 -26
-25 -41 -14 -15 -25 -31 -25 -37 0 -6 -11 -23 -25 -38 -18 -18 -28 -43 -32
-77 -8 -65 -38 -100 -87 -100 -51 0 -90 37 -90 84 0 44 23 70 79 88 34 11 49
28 111 118 40 58 73 110 73 116 1 6 12 21 26 34 14 13 25 27 25 31 0 23 131
189 150 189 3 0 11 -5 18 -12z m-609 -94 c25 -32 26 -55 6 -95 -13 -25 -15
-57 -11 -182 10 -282 22 -472 30 -490 13 -28 -2 -66 -35 -82 -28 -15 -33 -15
-62 2 -42 25 -49 74 -16 109 20 22 21 29 14 111 -4 48 -10 183 -14 300 -4 149
-10 216 -18 225 -19 18 -16 88 4 110 25 28 77 24 102 -8z m-839 -125 c0 -54
-4 -101 -10 -104 -6 -3 -10 -52 -10 -110 0 -59 -5 -116 -12 -132 -7 -15 -15
-80 -19 -143 -3 -63 -12 -135 -19 -159 -12 -39 -11 -47 5 -77 50 -94 -30 -180
-102 -108 -21 21 -24 32 -20 61 4 20 13 43 21 52 7 9 16 36 20 61 41 332 56
550 36 550 -6 0 -19 -14 -28 -31 -9 -17 -34 -50 -54 -73 -21 -22 -38 -46 -38
-52 0 -6 -8 -18 -17 -25 -18 -16 -114 -140 -154 -201 -15 -22 -31 -43 -36 -47
-5 -3 -28 -32 -51 -63 -38 -52 -42 -63 -42 -117 0 -52 -3 -62 -26 -80 -37 -29
-61 -26 -95 10 -48 51 -37 87 49 164 28 26 52 55 52 64 0 10 11 28 25 41 14
13 25 28 25 33 0 5 18 29 40 54 22 25 40 51 40 57 0 7 18 30 40 51 22 21 40
45 40 52 0 6 18 31 40 55 22 24 40 47 40 51 0 5 18 29 40 54 22 25 40 50 40
55 0 6 18 30 40 55 22 25 40 49 40 53 0 5 15 24 33 43 30 33 33 34 50 20 14
-13 17 -33 17 -114z"/>
</g>
</svg>
